<svg width="47" height="73" viewBox="0 0 47 73" fill="none" xmlns="http://www.w3.org/2000/svg">
<path d="M1 2.13758V16.3479C1.00153 16.7869 1.17824 17.2073 1.49138 17.5171C1.80453 17.8269 2.22856 18.0008 2.67056 18.0006H16.9795C17.4209 18.0005 17.8441 17.8264 18.1562 17.5165C18.4682 17.2065 18.6436 16.7862 18.6437 16.3479V2.13758C18.6438 1.69863 18.4688 1.27749 18.1568 0.966511C17.8449 0.655529 17.4215 0.480045 16.9795 0.478516H2.67056C2.2279 0.479797 1.80373 0.655033 1.49072 0.965889C1.1777 1.27674 1.00129 1.69797 1 2.13758Z" fill="#6C63FF"/>
<path d="M29.043 1.65907V15.8694C29.0445 16.3084 29.2212 16.7288 29.5344 17.0386C29.8475 17.3484 30.2715 17.5223 30.7135 17.5221H45.0225C45.4638 17.522 45.8871 17.3479 46.1991 17.0379C46.5112 16.728 46.6866 16.3077 46.6866 15.8694V1.65907C46.6868 1.22012 46.5118 0.798979 46.1998 0.487995C45.8879 0.177013 45.4645 0.00152969 45.0225 0H30.7135C30.2709 0.00128174 29.8467 0.176517 29.5337 0.487373C29.2207 0.798227 29.0443 1.21946 29.043 1.65907Z" fill="#6C63FF"/>
<path d="M29.1641 29.2499V43.4602C29.1656 43.8992 29.3423 44.3196 29.6554 44.6294C29.9686 44.9392 30.3926 45.1131 30.8346 45.1129H45.1436C45.5849 45.1128 46.0082 44.9387 46.3202 44.6288C46.6323 44.3189 46.8077 43.8985 46.8077 43.4602V29.2499C46.8079 28.8109 46.6328 28.3898 46.3209 28.0788C46.009 27.7678 45.5856 27.5924 45.1436 27.5908H30.8346C30.392 27.5921 29.9678 27.7673 29.6548 28.0782C29.3418 28.389 29.1654 28.8103 29.1641 29.2499Z" fill="#6C63FF"/>
<path d="M0.699219 29.4638V43.6741C0.700749 44.1131 0.877458 44.5335 1.1906 44.8433C1.50374 45.1531 1.92778 45.3269 2.36978 45.3268H16.6788C17.1201 45.3267 17.5433 45.1526 17.8554 44.8426C18.1675 44.5327 18.3428 44.1124 18.3429 43.6741V29.4638C18.3431 29.0248 18.168 28.6037 17.8561 28.2927C17.5441 27.9817 17.1208 27.8063 16.6788 27.8047H2.36978C1.92712 27.806 1.50295 27.9812 1.18993 28.2921C0.876923 28.6029 0.700509 29.0241 0.699219 29.4638Z" fill="#6C63FF"/>
<path d="M1 57.1375V71.3479C1.00154 71.7868 1.17824 72.2073 1.49138 72.5171C1.80452 72.8269 2.22856 73.0007 2.67056 73.0006H16.9795C17.4209 73.0005 17.8441 72.8264 18.1562 72.5164C18.4682 72.2065 18.6436 71.7862 18.6437 71.3479V57.1375C18.6438 56.6986 18.4688 56.2774 18.1568 55.9664C17.8449 55.6555 17.4215 55.48 16.9795 55.4784H2.67056C2.2279 55.4797 1.80373 55.655 1.49072 55.9658C1.1777 56.2767 1.00129 56.6979 1 57.1375Z" fill="#E6E6E6"/>
<path d="M29 56.6584V70.8688C29.0015 71.3077 29.1782 71.7282 29.4914 72.038C29.8045 72.3478 30.2286 72.5216 30.6706 72.5215H44.9795C45.4209 72.5214 45.8441 72.3472 46.1562 72.0373C46.4682 71.7274 46.6436 71.3071 46.6437 70.8688V56.6584C46.6438 56.2194 46.4688 55.7983 46.1568 55.4873C45.8449 55.1763 45.4215 55.0009 44.9795 54.9993H30.6706C30.2279 55.0006 29.8037 55.1758 29.4907 55.4867C29.1777 55.7975 29.0013 56.2188 29 56.6584Z" fill="#E6E6E6"/>
</svg>
