<svg width="18" height="18" viewBox="0 0 18 18" fill="none" xmlns="http://www.w3.org/2000/svg">
<g clip-path="url(#clip0_562_311)">
<path d="M15.75 1.125C16.0484 1.125 16.3345 1.24353 16.5455 1.4545C16.7565 1.66548 16.875 1.95163 16.875 2.25V15.75C16.875 16.0484 16.7565 16.3345 16.5455 16.5455C16.3345 16.7565 16.0484 16.875 15.75 16.875H2.25C1.95163 16.875 1.66548 16.7565 1.4545 16.5455C1.24353 16.3345 1.125 16.0484 1.125 15.75V2.25C1.125 1.95163 1.24353 1.66548 1.4545 1.4545C1.66548 1.24353 1.95163 1.125 2.25 1.125H15.75ZM2.25 0C1.65326 0 1.08097 0.237053 0.65901 0.65901C0.237053 1.08097 0 1.65326 0 2.25L0 15.75C0 16.3467 0.237053 16.919 0.65901 17.341C1.08097 17.7629 1.65326 18 2.25 18H15.75C16.3467 18 16.919 17.7629 17.341 17.341C17.7629 16.919 18 16.3467 18 15.75V2.25C18 1.65326 17.7629 1.08097 17.341 0.65901C16.919 0.237053 16.3467 0 15.75 0L2.25 0Z" fill="#312E81"/>
<path d="M12.341 5.59218C12.4984 5.43611 12.711 5.34827 12.9327 5.34766C13.1544 5.34705 13.3674 5.43371 13.5257 5.58891C13.684 5.74411 13.7748 5.95537 13.7786 6.17703C13.7824 6.39868 13.6988 6.61292 13.5459 6.77343L9.05487 12.3872C8.97769 12.4703 8.88453 12.537 8.78097 12.5833C8.67741 12.6296 8.56558 12.6546 8.45216 12.6567C8.33874 12.6588 8.22605 12.638 8.12085 12.5956C8.01565 12.5531 7.92009 12.4899 7.83988 12.4097L4.86425 9.43293C4.78135 9.35568 4.71486 9.26253 4.66875 9.15903C4.62263 9.05553 4.59783 8.9438 4.59583 8.83051C4.59384 8.71722 4.61468 8.60469 4.65711 8.49963C4.69955 8.39457 4.76271 8.29913 4.84283 8.21901C4.92295 8.13889 5.01839 8.07572 5.12345 8.03329C5.22851 7.99085 5.34105 7.97001 5.45434 7.97201C5.56763 7.97401 5.67936 7.99881 5.78286 8.04492C5.88635 8.09104 5.97951 8.15753 6.05675 8.24043L8.4125 10.5951L12.3196 5.61693C12.3266 5.60821 12.3341 5.59994 12.3421 5.59218H12.341Z" fill="#312E81"/>
</g>
<defs>
<clipPath id="clip0_562_311">
<rect width="18" height="18" fill="white"/>
</clipPath>
</defs>
</svg>
