<svg width="67" height="93" viewBox="0 0 67 93" fill="none" xmlns="http://www.w3.org/2000/svg">
<g filter="url(#filter0_d_792_12)">
<path d="M11 8.13758V22.3479C11.0015 22.7869 11.1782 23.2073 11.4914 23.5171C11.8045 23.8269 12.2286 24.0008 12.6706 24.0006H26.9795C27.4209 24.0005 27.8441 23.8264 28.1562 23.5165C28.4682 23.2065 28.6436 22.7862 28.6437 22.3479V8.13758C28.6438 7.69863 28.4688 7.27749 28.1568 6.96651C27.8449 6.65553 27.4215 6.48005 26.9795 6.47852H12.6706C12.2279 6.4798 11.8037 6.65503 11.4907 6.96589C11.1777 7.27674 11.0013 7.69797 11 8.13758Z" fill="#6C63FF"/>
<path d="M39.043 7.65907V21.8694C39.0445 22.3084 39.2212 22.7288 39.5344 23.0386C39.8475 23.3484 40.2715 23.5223 40.7135 23.5221H55.0225C55.4638 23.522 55.8871 23.3479 56.1991 23.0379C56.5112 22.728 56.6866 22.3077 56.6866 21.8694V7.65907C56.6868 7.22012 56.5118 6.79898 56.1998 6.488C55.8879 6.17701 55.4645 6.00153 55.0225 6H40.7135C40.2709 6.00128 39.8467 6.17652 39.5337 6.48737C39.2207 6.79823 39.0443 7.21946 39.043 7.65907Z" fill="#6C63FF"/>
<path d="M39.1641 35.2499V49.4602C39.1656 49.8992 39.3423 50.3196 39.6554 50.6294C39.9686 50.9392 40.3926 51.1131 40.8346 51.1129H55.1436C55.5849 51.1128 56.0082 50.9387 56.3202 50.6288C56.6323 50.3189 56.8077 49.8985 56.8077 49.4602V35.2499C56.8079 34.8109 56.6328 34.3898 56.3209 34.0788C56.009 33.7678 55.5856 33.5924 55.1436 33.5908H40.8346C40.392 33.5921 39.9678 33.7673 39.6548 34.0782C39.3418 34.389 39.1654 34.8103 39.1641 35.2499Z" fill="#6C63FF"/>
<path d="M10.6992 35.4638V49.6741C10.7007 50.1131 10.8775 50.5335 11.1906 50.8433C11.5037 51.1531 11.9278 51.3269 12.3698 51.3268H26.6788C27.1201 51.3267 27.5433 51.1526 27.8554 50.8426C28.1675 50.5327 28.3428 50.1124 28.3429 49.6741V35.4638C28.3431 35.0248 28.168 34.6037 27.8561 34.2927C27.5441 33.9817 27.1208 33.8063 26.6788 33.8047H12.3698C11.9271 33.806 11.5029 33.9812 11.1899 34.2921C10.8769 34.6029 10.7005 35.0241 10.6992 35.4638Z" fill="#6C63FF"/>
<path d="M11 63.1375V77.3479C11.0015 77.7868 11.1782 78.2073 11.4914 78.5171C11.8045 78.8269 12.2286 79.0007 12.6706 79.0006H26.9795C27.4209 79.0005 27.8441 78.8264 28.1562 78.5164C28.4682 78.2065 28.6436 77.7862 28.6437 77.3479V63.1375C28.6438 62.6986 28.4688 62.2774 28.1568 61.9664C27.8449 61.6555 27.4215 61.48 26.9795 61.4784H12.6706C12.2279 61.4797 11.8037 61.655 11.4907 61.9658C11.1777 62.2767 11.0013 62.6979 11 63.1375Z" fill="#E6E6E6"/>
<path d="M37.6426 62.7195V76.9299C37.6441 77.3689 37.8208 77.7893 38.134 78.0991C38.4471 78.4089 38.8711 78.5828 39.3131 78.5826H53.6221C54.0635 78.5825 54.4867 78.4084 54.7988 78.0985C55.1108 77.7885 55.2862 77.3682 55.2863 76.9299V62.7195C55.2864 62.2806 55.1114 61.8594 54.7994 61.5485C54.4875 61.2375 54.0641 61.062 53.6221 61.0605H39.3131C38.8705 61.0618 38.4463 61.237 38.1333 61.5478C37.8203 61.8587 37.6439 62.2799 37.6426 62.7195Z" fill="#E6E6E6"/>
</g>
<defs>
<filter id="filter0_d_792_12" x="0.699219" y="0" width="66.1094" height="93" filterUnits="userSpaceOnUse" color-interpolation-filters="sRGB">
<feFlood flood-opacity="0" result="BackgroundImageFix"/>
<feColorMatrix in="SourceAlpha" type="matrix" values="0 0 0 0 0 0 0 0 0 0 0 0 0 0 0 0 0 0 127 0" result="hardAlpha"/>
<feOffset dy="4"/>
<feGaussianBlur stdDeviation="5"/>
<feComposite in2="hardAlpha" operator="out"/>
<feColorMatrix type="matrix" values="0 0 0 0 0.647059 0 0 0 0 0.705882 0 0 0 0 0.988235 0 0 0 0.25 0"/>
<feBlend mode="normal" in2="BackgroundImageFix" result="effect1_dropShadow_792_12"/>
<feBlend mode="normal" in="SourceGraphic" in2="effect1_dropShadow_792_12" result="shape"/>
</filter>
</defs>
</svg>
