<svg width="52" height="72" viewBox="0 0 52 72" fill="none" xmlns="http://www.w3.org/2000/svg">
<g filter="url(#filter0_d_774_541)">
<path d="M2 36V35H50V36H2Z" fill="#312E81"/>
<path d="M2 66V65H50V66H2Z" fill="#312E81"/>
<path d="M2 6V5H50V6H2Z" fill="#312E81"/>
<path d="M26 32C28.2091 32 30 33.7909 30 36C30 38.2091 28.2091 40 26 40C23.7909 40 22 38.2091 22 36C22 33.7909 23.7909 32 26 32Z" fill="#312E81"/>
<path d="M26 62C28.2091 62 30 63.7909 30 66C30 68.2091 28.2091 70 26 70C23.7909 70 22 68.2091 22 66C22 63.7909 23.7909 62 26 62Z" fill="#312E81"/>
<path d="M26 2C28.2091 2 30 3.79086 30 6C30 8.20914 28.2091 10 26 10C23.7909 10 22 8.20914 22 6C22 3.79086 23.7909 2 26 2Z" fill="#312E81"/>
</g>
<defs>
<filter id="filter0_d_774_541" x="0" y="0" width="52" height="72" filterUnits="userSpaceOnUse" color-interpolation-filters="sRGB">
<feFlood flood-opacity="0" result="BackgroundImageFix"/>
<feColorMatrix in="SourceAlpha" type="matrix" values="0 0 0 0 0 0 0 0 0 0 0 0 0 0 0 0 0 0 127 0" result="hardAlpha"/>
<feOffset/>
<feGaussianBlur stdDeviation="1"/>
<feComposite in2="hardAlpha" operator="out"/>
<feColorMatrix type="matrix" values="0 0 0 0 0.647059 0 0 0 0 0.705882 0 0 0 0 0.988235 0 0 0 0.4 0"/>
<feBlend mode="normal" in2="BackgroundImageFix" result="effect1_dropShadow_774_541"/>
<feBlend mode="normal" in="SourceGraphic" in2="effect1_dropShadow_774_541" result="shape"/>
</filter>
</defs>
</svg>
