<svg width="72" height="72" viewBox="0 0 72 72" fill="none" xmlns="http://www.w3.org/2000/svg">
<path d="M70.6417 32.7909L39.2047 1.35837C38.7743 0.927728 38.2632 0.586112 37.7007 0.353038C37.1383 0.119964 36.5353 0 35.9265 0C35.3176 0 34.7147 0.119964 34.1522 0.353038C33.5897 0.586112 33.0787 0.927728 32.6482 1.35837L26.1232 7.88337L34.4032 16.1634C35.3797 15.83 36.4303 15.7778 37.4351 16.0128C38.4398 16.2479 39.3582 16.7607 40.0855 17.4926C40.8128 18.2246 41.3197 19.1463 41.5483 20.1526C41.7768 21.1588 41.7179 22.209 41.3782 23.1834L49.3567 31.1664C50.5371 30.7508 51.8239 30.7495 53.0051 31.1628C54.1863 31.5761 55.1916 32.3793 55.8554 33.4402C56.5191 34.5011 56.8019 35.7564 56.657 36.9994C56.5121 38.2425 55.9482 39.3991 55.0582 40.2789C54.1573 41.1854 52.9695 41.7509 51.6979 41.879C50.4262 42.007 49.1496 41.6895 48.086 40.9808C47.0224 40.2721 46.2379 39.2162 45.8664 37.9933C45.4949 36.7704 45.5595 35.4564 46.0492 34.2759L38.6107 26.8329V46.4214C39.7414 46.981 40.6461 47.9113 41.174 49.0572C41.7019 50.203 41.8212 51.4951 41.5119 52.7182C41.2026 53.9413 40.4835 55.0215 39.4744 55.7787C38.4653 56.5358 37.2271 56.9243 35.9663 56.8793C34.7055 56.8342 33.4983 56.3584 32.5457 55.5312C31.5932 54.704 30.953 53.5753 30.7317 52.3332C30.5105 51.0912 30.7216 49.8108 31.33 48.7056C31.9383 47.6003 32.907 46.737 34.0747 46.2594V26.4909C33.401 26.2148 32.7886 25.8081 32.2728 25.2943C31.757 24.7805 31.3481 24.1696 31.0695 23.4969C30.7909 22.8243 30.6482 22.1031 30.6496 21.3751C30.651 20.647 30.7965 19.9264 31.0777 19.2549L22.9192 11.0919L1.36423 32.6469C0.933587 33.0773 0.591971 33.5884 0.358897 34.1509C0.125823 34.7133 0.00585938 35.3162 0.00585938 35.9251C0.00585938 36.534 0.125823 37.1369 0.358897 37.6994C0.591971 38.2619 0.933587 38.7729 1.36423 39.2034L32.8012 70.6404C33.2317 71.071 33.7427 71.4126 34.3052 71.6457C34.8677 71.8788 35.4706 71.9987 36.0795 71.9987C36.6884 71.9987 37.2913 71.8788 37.8537 71.6457C38.4162 71.4126 38.9273 71.071 39.3577 70.6404L70.6462 39.3519C71.5149 38.482 72.0027 37.3029 72.0027 36.0736C72.0027 34.8443 71.5149 33.6653 70.6462 32.7954" fill="#374151"/>
</svg>
