<svg width="546" height="476" viewBox="0 0 546 476" fill="none" xmlns="http://www.w3.org/2000/svg">
<g clip-path="url(#clip0_562_65)">
<path d="M492.295 247.718C492.366 306.618 469.62 363.252 428.838 405.714C426.38 408.291 423.855 410.805 421.263 413.258C417.315 417.016 413.235 420.63 409.021 424.097C369.607 456.599 320.403 474.863 269.347 475.942C267.646 475.981 265.938 476 264.224 476C223.505 476 172.291 454.231 125.814 424.097C121.969 421.604 118.158 419.053 114.381 416.445C112.615 415.237 110.859 414.012 109.11 412.769C91.1849 400.1 74.17 386.188 58.1912 371.134C47.7293 361.307 37.9188 350.807 28.8221 339.702C-6.88937 295.612 -14.766 255.885 36.1467 247.718C42.1746 246.754 48.0249 245.724 53.6976 244.628C61.9145 243.047 69.7784 241.34 77.2891 239.507C87.4062 237.046 96.9113 234.377 105.804 231.501C108.796 230.537 111.719 229.554 114.573 228.552C156.775 213.716 185.021 194.369 204.247 173.378C207.508 169.825 210.514 166.229 213.266 162.59C217.476 157.051 221.301 151.229 224.712 145.165C229.421 136.739 233.375 127.913 236.53 118.789L236.704 118.288C252.001 74.1212 247.347 33.1539 264.224 19.4425C336.366 -39.1749 426.181 44.3017 468.337 142.743C470.462 147.703 472.461 152.693 474.333 157.713C475.174 159.956 475.985 162.203 476.766 164.453C478.82 170.32 480.684 176.201 482.357 182.097C482.999 184.346 483.611 186.593 484.193 188.837C484.816 191.26 485.413 193.675 485.965 196.091C490.067 213.78 492.295 231.224 492.295 247.718Z" fill="#F2F2F2"/>
<path d="M269.347 475.942C267.646 475.981 265.938 476 264.224 476C223.505 476 172.291 454.231 125.814 424.097C121.969 421.604 118.158 419.053 114.381 416.445L117.693 396.269L217.972 382.943L268.3 421.463L269.347 475.942Z" fill="#2F2E41"/>
<path d="M274.174 115.686H259.884C259.441 115.686 259.017 115.862 258.704 116.175C258.391 116.488 258.215 116.913 258.215 117.356V131.665C258.215 131.884 258.258 132.101 258.342 132.303C258.426 132.505 258.55 132.689 258.705 132.844C258.86 132.998 259.043 133.121 259.246 133.204C259.448 133.287 259.665 133.33 259.884 133.329H274.174C274.615 133.329 275.039 133.154 275.352 132.842C275.665 132.53 275.841 132.107 275.843 131.665V117.356C275.841 116.913 275.665 116.489 275.352 116.176C275.04 115.863 274.616 115.687 274.174 115.686V115.686Z" fill="white"/>
<path d="M274.174 140.069H259.884C259.441 140.07 259.017 140.246 258.704 140.559C258.391 140.872 258.215 141.297 258.215 141.74V156.049C258.215 156.268 258.258 156.485 258.342 156.687C258.426 156.889 258.55 157.073 258.705 157.227C258.86 157.382 259.043 157.504 259.246 157.588C259.448 157.671 259.665 157.714 259.884 157.713H274.174C274.615 157.713 275.039 157.538 275.352 157.226C275.665 156.914 275.841 156.491 275.843 156.049V141.74C275.841 141.297 275.665 140.873 275.352 140.56C275.04 140.247 274.616 140.071 274.174 140.069Z" fill="#E6E6E6"/>
<path d="M274.174 164.453H259.884C259.441 164.453 259.017 164.629 258.704 164.943C258.391 165.256 258.215 165.681 258.215 166.124V180.426C258.214 180.646 258.257 180.863 258.341 181.066C258.425 181.269 258.548 181.453 258.703 181.608C258.858 181.764 259.042 181.887 259.245 181.971C259.447 182.054 259.665 182.097 259.884 182.097H274.174C274.616 182.097 275.041 181.921 275.354 181.607C275.667 181.294 275.842 180.869 275.843 180.426V166.124C275.841 165.681 275.665 165.257 275.352 164.944C275.04 164.631 274.616 164.454 274.174 164.453V164.453Z" fill="#E6E6E6"/>
<path d="M275.817 190.212C275.746 189.827 275.543 189.479 275.243 189.228C274.943 188.977 274.565 188.839 274.174 188.837H259.884C259.441 188.837 259.017 189.013 258.704 189.326C258.391 189.64 258.215 190.065 258.215 190.508V204.81C258.214 205.03 258.257 205.247 258.341 205.45C258.425 205.653 258.548 205.837 258.703 205.992C258.858 206.148 259.042 206.271 259.245 206.354C259.447 206.438 259.665 206.481 259.884 206.481H274.174C274.616 206.48 275.041 206.304 275.354 205.991C275.667 205.678 275.842 205.253 275.843 204.81V190.508C275.844 190.408 275.835 190.309 275.817 190.212V190.212Z" fill="#E6E6E6"/>
<path d="M274.822 213.349C274.616 213.264 274.396 213.22 274.174 213.221H259.884C259.664 213.22 259.447 213.263 259.245 213.347C259.042 213.431 258.858 213.554 258.703 213.709C258.548 213.864 258.425 214.049 258.341 214.251C258.257 214.454 258.214 214.672 258.215 214.891V229.194C258.214 229.413 258.256 229.631 258.34 229.834C258.423 230.037 258.546 230.222 258.701 230.377C258.857 230.533 259.041 230.656 259.244 230.739C259.447 230.823 259.664 230.865 259.884 230.864H274.174C274.616 230.864 275.041 230.688 275.354 230.375C275.667 230.062 275.842 229.637 275.843 229.194V214.891C275.842 214.562 275.745 214.241 275.563 213.967C275.382 213.693 275.124 213.478 274.822 213.349Z" fill="#E6E6E6"/>
<path d="M304.191 115.686H289.901C289.459 115.686 289.034 115.862 288.721 116.175C288.409 116.488 288.233 116.913 288.232 117.356V131.665C288.233 131.884 288.276 132.101 288.36 132.303C288.444 132.505 288.567 132.689 288.722 132.844C288.877 132.998 289.061 133.121 289.263 133.204C289.466 133.287 289.683 133.33 289.901 133.329H304.191C304.633 133.329 305.056 133.154 305.369 132.842C305.682 132.53 305.859 132.107 305.86 131.665V117.356C305.859 116.913 305.683 116.489 305.37 116.176C305.057 115.863 304.633 115.687 304.191 115.686V115.686Z" fill="#E6E6E6"/>
<path d="M304.191 140.069H289.901C289.459 140.07 289.034 140.246 288.721 140.559C288.408 140.872 288.233 141.297 288.232 141.74V156.049C288.233 156.268 288.276 156.485 288.36 156.687C288.444 156.889 288.567 157.073 288.722 157.227C288.877 157.382 289.061 157.504 289.263 157.588C289.466 157.671 289.683 157.714 289.901 157.713H304.191C304.633 157.713 305.056 157.538 305.369 157.226C305.682 156.914 305.859 156.491 305.86 156.049V141.74C305.859 141.297 305.683 140.873 305.37 140.56C305.057 140.247 304.633 140.071 304.191 140.069Z" fill="#6C63FF"/>
<path d="M304.191 164.453H289.901C289.459 164.453 289.034 164.629 288.721 164.943C288.408 165.256 288.233 165.681 288.232 166.124V180.426C288.232 180.646 288.275 180.863 288.359 181.066C288.442 181.269 288.565 181.453 288.72 181.608C288.875 181.764 289.06 181.887 289.262 181.971C289.465 182.054 289.682 182.097 289.901 182.097H304.191C304.634 182.097 305.058 181.921 305.371 181.607C305.684 181.294 305.86 180.869 305.86 180.426V166.124C305.859 165.681 305.683 165.257 305.37 164.944C305.057 164.631 304.633 164.454 304.191 164.453V164.453Z" fill="#6C63FF"/>
<path d="M304.191 188.837H289.901C289.551 188.837 289.211 188.948 288.927 189.153C288.644 189.358 288.432 189.648 288.322 189.981C288.263 190.15 288.232 190.328 288.232 190.508V204.81C288.232 205.03 288.275 205.247 288.359 205.45C288.442 205.653 288.565 205.837 288.72 205.992C288.875 206.148 289.059 206.271 289.262 206.354C289.465 206.438 289.682 206.481 289.901 206.481H304.191C304.634 206.48 305.058 206.304 305.371 205.991C305.684 205.678 305.86 205.253 305.86 204.81V190.508C305.859 190.065 305.683 189.641 305.37 189.328C305.057 189.015 304.633 188.838 304.191 188.837V188.837Z" fill="#6C63FF"/>
<path d="M304.191 213.221H289.901C289.682 213.22 289.465 213.263 289.262 213.347C289.059 213.431 288.875 213.554 288.72 213.709C288.565 213.864 288.442 214.049 288.359 214.251C288.275 214.454 288.232 214.672 288.232 214.891V229.194C288.232 229.413 288.275 229.631 288.359 229.834C288.442 230.037 288.565 230.221 288.72 230.376C288.875 230.531 289.059 230.654 289.262 230.738C289.465 230.822 289.682 230.865 289.901 230.864H304.191C304.634 230.864 305.058 230.688 305.371 230.375C305.684 230.062 305.86 229.637 305.86 229.194V214.891C305.86 214.448 305.684 214.023 305.371 213.71C305.058 213.397 304.634 213.221 304.191 213.221V213.221Z" fill="#E6E6E6"/>
<path d="M334.209 115.686H319.919C319.476 115.686 319.052 115.862 318.739 116.175C318.426 116.488 318.25 116.913 318.25 117.356V131.665C318.25 131.884 318.294 132.101 318.378 132.303C318.462 132.505 318.585 132.689 318.74 132.844C318.895 132.998 319.079 133.121 319.281 133.204C319.483 133.287 319.7 133.33 319.919 133.329H334.209C334.65 133.329 335.074 133.154 335.387 132.842C335.7 132.53 335.876 132.107 335.878 131.665V117.356C335.877 116.913 335.7 116.489 335.387 116.176C335.075 115.863 334.651 115.687 334.209 115.686V115.686Z" fill="#6C63FF"/>
<path d="M334.209 140.069H319.919C319.476 140.07 319.052 140.246 318.739 140.559C318.426 140.872 318.25 141.297 318.25 141.74V156.049C318.25 156.268 318.294 156.485 318.378 156.687C318.462 156.889 318.585 157.073 318.74 157.227C318.895 157.382 319.079 157.504 319.281 157.588C319.483 157.671 319.7 157.714 319.919 157.713H334.209C334.65 157.713 335.074 157.538 335.387 157.226C335.7 156.914 335.876 156.491 335.878 156.049V141.74C335.877 141.297 335.7 140.873 335.388 140.56C335.075 140.247 334.651 140.071 334.209 140.069Z" fill="#6C63FF"/>
<path d="M334.209 164.453H319.919C319.476 164.453 319.052 164.629 318.739 164.943C318.426 165.256 318.25 165.681 318.25 166.124V180.426C318.25 180.646 318.292 180.863 318.376 181.066C318.46 181.269 318.583 181.453 318.738 181.608C318.893 181.764 319.077 181.887 319.28 181.971C319.482 182.054 319.7 182.097 319.919 182.097H334.209C334.651 182.097 335.076 181.921 335.389 181.607C335.702 181.294 335.878 180.869 335.878 180.426V166.124C335.877 165.681 335.7 165.257 335.388 164.944C335.075 164.631 334.651 164.454 334.209 164.453V164.453Z" fill="#E6E6E6"/>
<path d="M334.209 188.837H319.919C319.476 188.837 319.052 189.013 318.739 189.326C318.426 189.64 318.25 190.065 318.25 190.508V204.81C318.25 205.03 318.292 205.247 318.376 205.45C318.46 205.653 318.583 205.837 318.738 205.992C318.893 206.148 319.077 206.271 319.28 206.354C319.482 206.438 319.7 206.481 319.919 206.481H334.209C334.651 206.48 335.076 206.304 335.389 205.991C335.702 205.678 335.878 205.253 335.878 204.81V190.508C335.877 190.065 335.7 189.641 335.388 189.328C335.075 189.015 334.651 188.838 334.209 188.837V188.837Z" fill="#6C63FF"/>
<path d="M334.209 213.221H319.919C319.7 213.22 319.482 213.263 319.28 213.347C319.077 213.431 318.893 213.554 318.738 213.709C318.583 213.864 318.46 214.049 318.376 214.251C318.292 214.454 318.25 214.672 318.25 214.891V229.194C318.25 229.413 318.292 229.631 318.376 229.834C318.46 230.037 318.583 230.221 318.738 230.376C318.893 230.531 319.077 230.654 319.28 230.738C319.482 230.822 319.7 230.865 319.919 230.864H334.209C334.651 230.864 335.076 230.688 335.389 230.375C335.702 230.062 335.878 229.637 335.878 229.194V214.891C335.878 214.448 335.702 214.023 335.389 213.71C335.076 213.397 334.651 213.221 334.209 213.221V213.221Z" fill="#6C63FF"/>
<path d="M364.226 115.686H349.937C349.494 115.686 349.07 115.862 348.757 116.175C348.444 116.488 348.268 116.913 348.268 117.356V131.665C348.268 131.884 348.311 132.101 348.395 132.303C348.479 132.505 348.602 132.689 348.757 132.844C348.912 132.998 349.096 133.121 349.299 133.204C349.501 133.287 349.718 133.33 349.937 133.329H364.226C364.668 133.329 365.092 133.154 365.405 132.842C365.717 132.53 365.894 132.107 365.895 131.665V117.356C365.894 116.913 365.718 116.489 365.405 116.176C365.092 115.863 364.669 115.687 364.226 115.686V115.686Z" fill="#6C63FF"/>
<path d="M364.226 140.069H349.937C349.494 140.07 349.07 140.246 348.757 140.559C348.444 140.872 348.268 141.297 348.268 141.74V156.049C348.268 156.268 348.311 156.485 348.395 156.687C348.479 156.889 348.602 157.073 348.757 157.227C348.912 157.382 349.096 157.504 349.299 157.588C349.501 157.671 349.718 157.714 349.937 157.713H364.226C364.668 157.713 365.092 157.538 365.405 157.226C365.717 156.914 365.894 156.491 365.895 156.049V141.74C365.894 141.297 365.718 140.873 365.405 140.56C365.092 140.247 364.669 140.071 364.226 140.069V140.069Z" fill="white"/>
<path d="M364.226 164.453H349.937C349.494 164.453 349.07 164.629 348.757 164.943C348.444 165.256 348.268 165.681 348.268 166.124V180.426C348.267 180.646 348.31 180.863 348.394 181.066C348.477 181.269 348.6 181.453 348.755 181.608C348.911 181.764 349.095 181.887 349.297 181.971C349.5 182.054 349.717 182.097 349.937 182.097H364.226C364.669 182.097 365.093 181.921 365.406 181.607C365.719 181.294 365.895 180.869 365.895 180.426V166.124C365.894 165.681 365.718 165.257 365.405 164.944C365.092 164.631 364.669 164.454 364.226 164.453V164.453Z" fill="white"/>
<path d="M364.226 188.837H349.937C349.494 188.837 349.07 189.013 348.757 189.326C348.444 189.64 348.268 190.065 348.268 190.508V204.81C348.267 205.03 348.31 205.247 348.394 205.45C348.477 205.653 348.6 205.837 348.755 205.992C348.911 206.148 349.095 206.271 349.297 206.354C349.5 206.438 349.717 206.481 349.937 206.481H364.226C364.669 206.48 365.093 206.304 365.406 205.991C365.719 205.678 365.895 205.253 365.895 204.81V190.508C365.894 190.065 365.718 189.641 365.405 189.328C365.092 189.015 364.669 188.838 364.226 188.837V188.837Z" fill="#E6E6E6"/>
<path d="M364.226 213.221H349.937C349.717 213.22 349.5 213.263 349.297 213.347C349.095 213.431 348.911 213.554 348.755 213.709C348.6 213.864 348.477 214.049 348.394 214.251C348.31 214.454 348.267 214.672 348.268 214.891V229.194C348.267 229.413 348.31 229.631 348.394 229.834C348.477 230.037 348.6 230.221 348.755 230.376C348.911 230.531 349.095 230.654 349.297 230.738C349.5 230.822 349.717 230.865 349.937 230.864H364.226C364.669 230.864 365.093 230.688 365.406 230.375C365.719 230.062 365.895 229.637 365.895 229.194V214.891C365.895 214.448 365.719 214.023 365.406 213.71C365.093 213.397 364.669 213.221 364.226 213.221V213.221Z" fill="#6C63FF"/>
<path d="M394.244 115.686H379.948C379.506 115.687 379.083 115.864 378.772 116.177C378.46 116.49 378.285 116.914 378.285 117.356V131.665C378.285 132.106 378.46 132.53 378.772 132.842C379.084 133.154 379.507 133.329 379.948 133.329H394.244C394.686 133.329 395.109 133.154 395.422 132.842C395.735 132.53 395.912 132.107 395.913 131.665V117.356C395.912 116.913 395.735 116.489 395.423 116.176C395.11 115.863 394.686 115.687 394.244 115.686Z" fill="white"/>
<path d="M394.244 140.069H379.948C379.506 140.071 379.083 140.248 378.772 140.561C378.46 140.874 378.285 141.298 378.285 141.74V156.049C378.285 156.49 378.46 156.913 378.772 157.226C379.084 157.538 379.507 157.713 379.948 157.713H394.244C394.686 157.713 395.109 157.538 395.422 157.226C395.735 156.914 395.912 156.491 395.913 156.049V141.74C395.912 141.297 395.736 140.873 395.423 140.56C395.11 140.247 394.686 140.071 394.244 140.069V140.069Z" fill="white"/>
<path d="M394.244 164.453H379.948C379.506 164.455 379.083 164.631 378.772 164.945C378.46 165.258 378.285 165.682 378.285 166.124V180.426C378.285 180.645 378.327 180.862 378.41 181.065C378.494 181.267 378.616 181.451 378.77 181.607C378.925 181.762 379.108 181.885 379.31 181.969C379.512 182.053 379.729 182.097 379.948 182.097H394.244C394.687 182.097 395.111 181.921 395.424 181.607C395.737 181.294 395.913 180.869 395.913 180.426V166.124C395.912 165.681 395.736 165.257 395.423 164.944C395.11 164.631 394.686 164.454 394.244 164.453V164.453Z" fill="white"/>
<path d="M394.244 188.837H379.948C379.506 188.838 379.083 189.015 378.772 189.328C378.46 189.642 378.285 190.066 378.285 190.508V204.81C378.285 205.029 378.327 205.246 378.41 205.449C378.494 205.651 378.616 205.835 378.77 205.99C378.925 206.146 379.108 206.269 379.31 206.353C379.512 206.437 379.729 206.48 379.948 206.481H394.244C394.687 206.48 395.111 206.304 395.424 205.991C395.737 205.678 395.913 205.253 395.913 204.81V190.508C395.912 190.065 395.736 189.641 395.423 189.328C395.11 189.015 394.686 188.838 394.244 188.837V188.837Z" fill="#6C63FF"/>
<path d="M394.244 213.221H379.948C379.729 213.221 379.512 213.264 379.31 213.348C379.108 213.433 378.925 213.556 378.77 213.711C378.616 213.866 378.494 214.05 378.41 214.253C378.327 214.455 378.285 214.672 378.285 214.891V229.194C378.285 229.413 378.327 229.63 378.41 229.832C378.494 230.035 378.616 230.219 378.77 230.374C378.925 230.529 379.108 230.653 379.31 230.737C379.512 230.821 379.729 230.864 379.948 230.864H394.244C394.687 230.864 395.111 230.688 395.424 230.375C395.737 230.062 395.913 229.637 395.913 229.194V214.891C395.913 214.448 395.737 214.023 395.424 213.71C395.111 213.397 394.687 213.221 394.244 213.221V213.221Z" fill="#E6E6E6"/>
<path d="M424.262 115.686H409.965C409.524 115.687 409.101 115.864 408.789 116.177C408.478 116.49 408.303 116.914 408.303 117.356V131.665C408.303 132.106 408.478 132.53 408.79 132.842C409.102 133.154 409.524 133.329 409.965 133.329H424.262C424.703 133.329 425.127 133.154 425.44 132.842C425.753 132.53 425.929 132.107 425.931 131.665V117.356C425.929 116.913 425.753 116.489 425.44 116.176C425.128 115.863 424.704 115.687 424.262 115.686V115.686Z" fill="white"/>
<path d="M424.262 140.069H409.965C409.524 140.071 409.101 140.248 408.789 140.561C408.477 140.874 408.303 141.298 408.303 141.74V156.049C408.303 156.49 408.478 156.913 408.79 157.226C409.102 157.538 409.524 157.713 409.965 157.713H424.262C424.703 157.713 425.127 157.538 425.44 157.226C425.753 156.914 425.929 156.491 425.931 156.049V141.74C425.929 141.297 425.753 140.873 425.44 140.56C425.128 140.247 424.704 140.071 424.262 140.069V140.069Z" fill="white"/>
<path d="M424.262 164.453H409.965C409.524 164.455 409.101 164.631 408.789 164.945C408.477 165.258 408.303 165.682 408.303 166.124V180.426C408.302 180.645 408.345 180.862 408.428 181.065C408.511 181.267 408.634 181.451 408.788 181.607C408.942 181.762 409.126 181.885 409.328 181.969C409.53 182.053 409.747 182.097 409.965 182.097H424.262C424.704 182.097 425.129 181.921 425.442 181.607C425.754 181.294 425.93 180.869 425.931 180.426V166.124C425.929 165.681 425.753 165.257 425.44 164.944C425.128 164.631 424.704 164.454 424.262 164.453V164.453Z" fill="#6C63FF"/>
<path d="M424.262 188.837H409.965C409.524 188.838 409.101 189.015 408.789 189.328C408.478 189.642 408.303 190.066 408.303 190.508V204.81C408.302 205.029 408.345 205.246 408.428 205.449C408.511 205.651 408.634 205.835 408.788 205.99C408.942 206.146 409.126 206.269 409.328 206.353C409.53 206.437 409.747 206.48 409.965 206.481H424.262C424.704 206.48 425.129 206.304 425.442 205.991C425.755 205.678 425.93 205.253 425.931 204.81V190.508C425.929 190.065 425.753 189.641 425.44 189.328C425.128 189.015 424.704 188.838 424.262 188.837V188.837Z" fill="#E6E6E6"/>
<path d="M424.262 213.221H409.965C409.747 213.221 409.53 213.264 409.328 213.348C409.126 213.433 408.942 213.556 408.788 213.711C408.634 213.866 408.511 214.05 408.428 214.253C408.345 214.455 408.302 214.672 408.303 214.891V229.194C408.302 229.413 408.345 229.63 408.428 229.832C408.511 230.035 408.634 230.219 408.788 230.374C408.942 230.529 409.126 230.653 409.328 230.737C409.53 230.821 409.747 230.864 409.965 230.864H424.262C424.704 230.864 425.129 230.688 425.442 230.375C425.755 230.062 425.93 229.637 425.931 229.194V214.891C425.93 214.448 425.755 214.023 425.442 213.71C425.129 213.397 424.704 213.221 424.262 213.221Z" fill="white"/>
<path d="M454.279 115.686H439.983C439.541 115.687 439.118 115.864 438.807 116.177C438.495 116.49 438.32 116.914 438.32 117.356V131.665C438.32 132.106 438.496 132.53 438.807 132.842C439.119 133.154 439.542 133.329 439.983 133.329H454.279C454.721 133.329 455.144 133.154 455.457 132.842C455.77 132.53 455.947 132.107 455.948 131.665V117.356C455.947 116.913 455.771 116.489 455.458 116.176C455.145 115.863 454.721 115.687 454.279 115.686V115.686Z" fill="#6C63FF"/>
<path d="M454.279 140.069H439.983C439.541 140.071 439.118 140.248 438.807 140.561C438.495 140.874 438.32 141.298 438.32 141.74V156.049C438.32 156.49 438.496 156.913 438.807 157.226C439.119 157.538 439.542 157.713 439.983 157.713H454.279C454.721 157.713 455.144 157.538 455.457 157.226C455.77 156.914 455.947 156.491 455.948 156.049V141.74C455.947 141.297 455.771 140.873 455.458 140.56C455.145 140.247 454.721 140.071 454.279 140.069Z" fill="#6C63FF"/>
<path d="M454.279 164.453H439.983C439.541 164.455 439.118 164.631 438.807 164.945C438.495 165.258 438.32 165.682 438.32 166.124V180.426C438.32 180.645 438.362 180.862 438.446 181.065C438.529 181.267 438.651 181.451 438.806 181.607C438.96 181.762 439.143 181.885 439.345 181.969C439.548 182.053 439.764 182.097 439.983 182.097H454.279C454.722 182.097 455.146 181.921 455.459 181.607C455.772 181.294 455.948 180.869 455.948 180.426V166.124C455.947 165.681 455.771 165.257 455.458 164.944C455.145 164.631 454.721 164.454 454.279 164.453V164.453Z" fill="#E6E6E6"/>
<path d="M454.279 188.837H439.983C439.541 188.838 439.118 189.015 438.807 189.328C438.495 189.642 438.32 190.066 438.32 190.508V204.81C438.32 205.029 438.362 205.246 438.446 205.449C438.529 205.651 438.651 205.835 438.806 205.99C438.96 206.146 439.143 206.269 439.345 206.353C439.548 206.437 439.764 206.48 439.983 206.481H454.279C454.722 206.48 455.146 206.304 455.459 205.991C455.772 205.678 455.948 205.253 455.948 204.81V190.508C455.947 190.065 455.771 189.641 455.458 189.328C455.145 189.015 454.721 188.838 454.279 188.837V188.837Z" fill="white"/>
<path d="M454.279 213.221H439.983C439.764 213.221 439.548 213.264 439.345 213.348C439.143 213.433 438.96 213.556 438.806 213.711C438.651 213.866 438.529 214.05 438.446 214.253C438.362 214.455 438.32 214.672 438.32 214.891V229.194C438.32 229.413 438.362 229.63 438.446 229.832C438.529 230.035 438.651 230.219 438.806 230.374C438.96 230.529 439.143 230.653 439.345 230.737C439.548 230.821 439.764 230.864 439.983 230.864H454.279C454.722 230.864 455.146 230.688 455.459 230.375C455.772 230.062 455.948 229.637 455.948 229.194V214.891C455.948 214.448 455.772 214.023 455.459 213.71C455.146 213.397 454.722 213.221 454.279 213.221Z" fill="#6C63FF"/>
<path d="M484.297 115.686H470.001C469.559 115.687 469.136 115.864 468.824 116.177C468.513 116.49 468.338 116.914 468.338 117.356V131.665C468.338 132.106 468.513 132.53 468.825 132.842C469.137 133.154 469.56 133.329 470.001 133.329H484.297C484.738 133.329 485.162 133.154 485.475 132.842C485.788 132.53 485.964 132.107 485.966 131.665V117.356C485.964 116.913 485.788 116.489 485.475 116.176C485.163 115.863 484.739 115.687 484.297 115.686Z" fill="#6C63FF"/>
<path d="M484.295 140.07H469.999C469.557 140.072 469.134 140.249 468.822 140.562C468.511 140.875 468.336 141.299 468.336 141.741V156.05C468.336 156.491 468.511 156.914 468.823 157.226C469.135 157.539 469.558 157.714 469.999 157.714H484.295C484.736 157.714 485.16 157.539 485.473 157.227C485.786 156.915 485.962 156.492 485.964 156.05V141.741C485.963 141.298 485.786 140.874 485.473 140.561C485.161 140.248 484.737 140.072 484.295 140.07V140.07Z" fill="#6C63FF"/>
<path d="M484.297 164.453H470.001C469.559 164.455 469.136 164.631 468.824 164.945C468.513 165.258 468.338 165.682 468.338 166.124V180.426C468.337 180.645 468.38 180.862 468.463 181.065C468.546 181.267 468.669 181.451 468.823 181.607C468.978 181.762 469.161 181.885 469.363 181.969C469.565 182.053 469.782 182.097 470.001 182.097H484.297C484.739 182.097 485.164 181.921 485.477 181.607C485.79 181.294 485.966 180.869 485.966 180.426V166.124C485.964 165.681 485.788 165.257 485.475 164.944C485.163 164.631 484.739 164.454 484.297 164.453Z" fill="#E6E6E6"/>
<path d="M484.297 188.837H470.001C469.559 188.838 469.136 189.015 468.824 189.328C468.513 189.642 468.338 190.066 468.338 190.508V204.81C468.337 205.029 468.38 205.246 468.463 205.449C468.546 205.651 468.669 205.835 468.823 205.99C468.978 206.146 469.161 206.269 469.363 206.353C469.565 206.437 469.782 206.48 470.001 206.481H484.297C484.739 206.48 485.164 206.304 485.477 205.991C485.79 205.678 485.966 205.253 485.966 204.81V190.508C485.964 190.065 485.788 189.641 485.475 189.328C485.163 189.015 484.739 188.838 484.297 188.837V188.837Z" fill="#6C63FF"/>
<path d="M484.297 213.221H470.001C469.782 213.221 469.565 213.264 469.363 213.348C469.161 213.433 468.978 213.556 468.823 213.711C468.669 213.866 468.546 214.05 468.463 214.253C468.38 214.455 468.337 214.672 468.338 214.891V229.194C468.337 229.413 468.38 229.63 468.463 229.832C468.546 230.035 468.669 230.219 468.823 230.374C468.978 230.529 469.161 230.653 469.363 230.737C469.565 230.821 469.782 230.864 470.001 230.864H484.297C484.739 230.864 485.164 230.688 485.477 230.375C485.79 230.062 485.966 229.637 485.966 229.194V214.891C485.966 214.448 485.79 214.023 485.477 213.71C485.164 213.397 484.739 213.221 484.297 213.221V213.221Z" fill="#6C63FF"/>
<path d="M514.314 115.686H500.018C499.577 115.687 499.154 115.864 498.842 116.177C498.53 116.49 498.355 116.914 498.355 117.356V131.665C498.356 132.106 498.531 132.53 498.843 132.842C499.154 133.154 499.577 133.329 500.018 133.329H514.314C514.756 133.329 515.179 133.154 515.492 132.842C515.805 132.53 515.982 132.107 515.983 131.665V117.356C515.982 116.913 515.806 116.489 515.493 116.176C515.18 115.863 514.757 115.687 514.314 115.686V115.686Z" fill="#E6E6E6"/>
<path d="M514.314 140.07H500.018C499.576 140.072 499.154 140.249 498.842 140.562C498.53 140.875 498.355 141.299 498.355 141.741V156.05C498.356 156.491 498.531 156.914 498.843 157.226C499.154 157.539 499.577 157.714 500.018 157.714H514.314C514.756 157.714 515.179 157.539 515.492 157.227C515.805 156.915 515.982 156.492 515.983 156.05V141.741C515.982 141.298 515.806 140.874 515.493 140.561C515.18 140.248 514.757 140.072 514.314 140.07V140.07Z" fill="#6C63FF"/>
<path d="M514.314 164.453H500.018C499.576 164.455 499.154 164.631 498.842 164.945C498.53 165.258 498.355 165.682 498.355 166.124V180.426C498.355 180.645 498.397 180.862 498.481 181.065C498.564 181.267 498.686 181.451 498.841 181.607C498.995 181.762 499.179 181.885 499.381 181.969C499.583 182.053 499.799 182.097 500.018 182.097H514.314C514.757 182.097 515.181 181.921 515.494 181.607C515.807 181.294 515.983 180.869 515.983 180.426V166.124C515.982 165.681 515.806 165.257 515.493 164.944C515.18 164.631 514.757 164.454 514.314 164.453V164.453Z" fill="#6C63FF"/>
<path d="M514.314 188.837H500.018C499.576 188.838 499.154 189.015 498.842 189.328C498.53 189.642 498.355 190.066 498.355 190.508V204.81C498.355 205.029 498.397 205.246 498.481 205.449C498.564 205.651 498.686 205.835 498.841 205.99C498.995 206.146 499.179 206.269 499.381 206.353C499.583 206.437 499.799 206.48 500.018 206.481H514.314C514.757 206.48 515.181 206.304 515.494 205.991C515.807 205.678 515.983 205.253 515.983 204.81V190.508C515.982 190.065 515.806 189.641 515.493 189.328C515.18 189.015 514.757 188.838 514.314 188.837V188.837Z" fill="#6C63FF"/>
<path d="M514.314 213.221H500.018C499.799 213.221 499.583 213.264 499.381 213.348C499.179 213.433 498.995 213.556 498.841 213.711C498.686 213.866 498.564 214.05 498.481 214.253C498.397 214.455 498.355 214.672 498.355 214.891V229.194C498.355 229.413 498.397 229.63 498.481 229.832C498.564 230.035 498.686 230.219 498.841 230.374C498.995 230.529 499.179 230.653 499.381 230.737C499.583 230.821 499.799 230.864 500.018 230.864H514.314C514.757 230.864 515.181 230.688 515.494 230.375C515.807 230.062 515.983 229.637 515.983 229.194V214.891C515.983 214.448 515.807 214.023 515.494 213.71C515.181 213.397 514.757 213.221 514.314 213.221V213.221Z" fill="#E6E6E6"/>
<path d="M544.33 115.686H530.034C529.592 115.687 529.169 115.864 528.858 116.177C528.546 116.49 528.371 116.914 528.371 117.356V131.665C528.371 132.106 528.546 132.53 528.858 132.842C529.17 133.154 529.593 133.329 530.034 133.329H544.33C544.772 133.329 545.195 133.154 545.508 132.842C545.821 132.53 545.997 132.107 545.999 131.665V117.356C545.998 116.913 545.821 116.489 545.509 116.176C545.196 115.863 544.772 115.687 544.33 115.686V115.686Z" fill="#E6E6E6"/>
<path d="M544.33 140.07H530.034C529.592 140.072 529.169 140.249 528.858 140.562C528.546 140.875 528.371 141.299 528.371 141.741V156.05C528.371 156.491 528.546 156.914 528.858 157.226C529.17 157.539 529.593 157.714 530.034 157.714H544.33C544.772 157.714 545.195 157.539 545.508 157.227C545.821 156.915 545.998 156.492 545.999 156.05V141.741C545.998 141.298 545.821 140.874 545.509 140.561C545.196 140.248 544.772 140.072 544.33 140.07V140.07Z" fill="#E6E6E6"/>
<path d="M544.33 164.453H530.034C529.592 164.455 529.169 164.631 528.858 164.945C528.546 165.258 528.371 165.682 528.371 166.124V180.426C528.37 180.645 528.413 180.862 528.496 181.065C528.58 181.267 528.702 181.451 528.856 181.607C529.011 181.762 529.194 181.885 529.396 181.969C529.598 182.053 529.815 182.097 530.034 182.097H544.33C544.773 182.097 545.197 181.921 545.51 181.607C545.823 181.294 545.999 180.869 545.999 180.426V166.124C545.998 165.681 545.821 165.257 545.509 164.944C545.196 164.631 544.772 164.454 544.33 164.453V164.453Z" fill="#6C63FF"/>
<path d="M544.33 188.837H530.034C529.592 188.838 529.169 189.015 528.858 189.328C528.546 189.642 528.371 190.066 528.371 190.508V204.81C528.37 205.029 528.413 205.246 528.496 205.449C528.58 205.651 528.702 205.835 528.856 205.99C529.011 206.146 529.194 206.269 529.396 206.353C529.598 206.437 529.815 206.48 530.034 206.481H544.33C544.773 206.48 545.197 206.304 545.51 205.991C545.823 205.678 545.999 205.253 545.999 204.81V190.508C545.998 190.065 545.821 189.641 545.509 189.328C545.196 189.015 544.772 188.838 544.33 188.837V188.837Z" fill="#E6E6E6"/>
<path d="M544.33 213.221H530.034C529.815 213.221 529.598 213.264 529.396 213.348C529.194 213.433 529.011 213.556 528.856 213.711C528.702 213.866 528.58 214.05 528.496 214.253C528.413 214.455 528.37 214.672 528.371 214.891V229.194C528.37 229.413 528.413 229.63 528.496 229.832C528.58 230.035 528.702 230.219 528.856 230.374C529.011 230.529 529.194 230.653 529.396 230.737C529.598 230.821 529.815 230.864 530.034 230.864H544.33C544.773 230.864 545.197 230.688 545.51 230.375C545.823 230.062 545.999 229.637 545.999 229.194V214.891C545.999 214.448 545.823 214.023 545.51 213.71C545.197 213.397 544.773 213.221 544.33 213.221V213.221Z" fill="#E6E6E6"/>
<path d="M215.755 424.098H215.357L215.698 424.053L215.755 424.098Z" fill="#2F2E41"/>
<path d="M181.552 157.453C205.775 157.453 225.411 137.799 225.411 113.555C225.411 89.3102 205.775 69.6562 181.552 69.6562C157.33 69.6562 137.693 89.3102 137.693 113.555C137.693 137.799 157.33 157.453 181.552 157.453Z" fill="#FFB6B6"/>
<path d="M219.96 81.3689C219.96 81.3689 231.431 59.4197 206.194 57.4243C206.194 57.4243 184.68 37.8901 162.75 53.8532C162.75 53.8532 150.789 53.8532 144.248 67.4012C144.248 67.4012 134.84 63.83 132.772 73.3873C132.772 73.3873 125.888 93.3412 132.772 111.3C139.656 129.258 141.943 131.253 141.943 131.253C141.943 131.253 130.631 93.6026 158.165 91.6072C185.698 89.6117 216.509 72.3897 218.804 94.3388C221.098 116.288 224.551 121.696 224.551 121.696C224.551 121.696 246.345 90.3481 219.96 81.3689Z" fill="#2F2E41"/>
<path d="M295.005 221.741L294.863 222.486L293.278 230.865L282.32 288.82L281.671 292.232L280.311 299.448L278.449 309.291L274.321 331.105L273.14 337.357L272.697 339.702L272.543 340.524L271.317 346.994L270.945 348.948L267.953 371.134L265.34 390.468L274.084 399.219L268.871 404.436L265.45 424.052L265.456 424.097H125.813C120.164 420.435 114.596 416.659 109.11 412.769L110.259 404.16C110.259 404.16 114.213 388.784 112.551 386.947C110.894 385.109 107.261 381.826 107.261 381.826L111.838 371.134L112.474 369.65L111.408 347.528L111.382 346.994L111.029 339.702L110.984 338.764L110.914 337.357L109.559 309.291L109.534 308.828L109.123 300.321L108.738 292.232L108.571 288.82L106.921 254.683L105.804 231.501L104.828 211.319L108.75 209.989L150.702 195.719L168.079 173.108L204.246 173.378L221.951 173.513L251.494 200.936L258.215 204.149L258.266 204.174L263.087 206.481L275.31 212.322L288.232 218.503L294.864 221.67L295.005 221.741Z" fill="#CACACA"/>
<path d="M179.509 358.048C176.859 359.076 174.016 359.51 171.18 359.319C168.344 359.127 165.584 358.316 163.096 356.942C160.607 355.568 158.449 353.665 156.775 351.366C155.101 349.067 153.95 346.429 153.405 343.637L85 333.923L108.78 307L170.092 320.352C174.839 319.746 179.643 320.904 183.594 323.606C187.545 326.308 190.369 330.367 191.53 335.014C192.69 339.66 192.108 344.572 189.892 348.817C187.677 353.063 183.982 356.347 179.509 358.048V358.048Z" fill="#FFB6B6"/>
<path d="M142.255 309.291C140.988 307.683 139.194 306.575 137.19 306.162L109.124 300.321L106.242 299.724C104.567 299.374 102.984 298.674 101.598 297.67C100.212 296.666 99.0534 295.38 98.1981 293.896C97.3109 292.339 96.7741 290.607 96.6253 288.82C96.4916 287.196 96.6859 285.562 97.1967 284.014L106.922 254.683L113.232 235.652C113.997 233.356 114.449 230.968 114.574 228.552C114.926 221.865 112.859 215.275 108.752 209.989C105.141 205.343 100.133 201.983 94.4674 200.405C88.8019 198.827 82.7795 199.114 77.2899 201.225C77.1294 201.283 76.9625 201.347 76.802 201.412C72.8651 202.985 69.3478 205.453 66.5279 208.621C63.7081 211.789 61.663 215.57 60.5543 219.666L53.6984 244.628L39.5563 296.087C38.1406 301.243 37.8546 306.644 38.7178 311.921C39.5811 317.198 41.5732 322.225 44.5579 326.66C47.5425 331.095 51.4492 334.831 56.0106 337.615C60.572 340.398 65.6803 342.162 70.986 342.786L111.409 347.528L130.116 349.725C132.279 349.985 134.46 349.42 136.226 348.143C137.991 346.865 139.211 344.968 139.642 342.831C139.672 342.715 139.696 342.597 139.713 342.477L140.162 339.702L143.969 316.327L144.007 316.089C144.206 314.896 144.152 313.675 143.85 312.504C143.549 311.334 143.005 310.239 142.255 309.291Z" fill="#CACACA"/>
<path d="M216.251 358.521C219.019 359.165 221.895 359.193 224.676 358.603C227.456 358.014 230.074 356.821 232.344 355.11C234.615 353.398 236.482 351.209 237.816 348.697C239.15 346.185 239.917 343.41 240.063 340.569L306.416 321.298L279.081 298L220.262 319.872C215.477 319.942 210.884 321.767 207.353 325C203.822 328.233 201.599 332.65 201.105 337.414C200.61 342.178 201.879 346.958 204.67 350.848C207.462 354.738 211.582 357.469 216.251 358.521Z" fill="#FFB6B6"/>
<path d="M339.435 278.655L307.877 205.96C305.296 199.992 300.686 195.132 294.865 192.243C293.065 191.356 291.176 190.667 289.228 190.186C288.927 190.109 288.625 190.039 288.323 189.981C284.194 189.079 279.911 189.158 275.818 190.212C272.077 191.174 268.58 192.915 265.556 195.321C262.532 197.726 260.048 200.743 258.267 204.174C258.248 204.203 258.231 204.233 258.216 204.264C256.227 208.116 255.169 212.381 255.128 216.717C255.086 221.052 256.063 225.337 257.978 229.226L258.37 230.01L280.671 274.839C281.433 276.372 281.862 278.049 281.93 279.759C281.999 281.47 281.705 283.176 281.069 284.765C280.432 286.354 279.467 287.79 278.237 288.979C277.007 290.169 275.539 291.085 273.931 291.666L272.364 292.232L244.196 302.416C242.082 303.171 240.344 304.717 239.346 306.729C238.349 308.742 238.17 311.063 238.848 313.204L238.919 313.429L246.815 338.718C246.853 338.834 246.892 338.95 246.937 339.065C247.006 339.284 247.092 339.496 247.194 339.701C248.033 341.585 249.516 343.107 251.377 343.994C253.237 344.881 255.353 345.075 257.343 344.54L272.544 340.524L275.645 339.701L314.9 329.325C320.065 327.959 324.874 325.492 328.998 322.092C333.122 318.693 336.464 314.442 338.794 309.63C341.124 304.818 342.387 299.559 342.498 294.213C342.609 288.867 341.564 283.56 339.435 278.655L339.435 278.655Z" fill="#CACACA"/>
<path d="M28.8223 339.701C37.9189 350.806 47.7294 361.306 58.1913 371.133H348.332C351.127 371.138 353.807 372.252 355.783 374.231C357.759 376.21 358.87 378.892 358.873 381.69L359.29 455.278C377.139 447.07 393.854 436.59 409.022 424.097C413.233 420.633 417.313 417.02 421.263 413.257C423.851 410.803 426.376 408.288 428.838 405.714C447.303 386.461 462.256 364.119 473.017 339.701H28.8223Z" fill="#3F3D56"/>
<path d="M428.839 405.715C426.38 408.291 423.855 410.806 421.264 413.258H359.502V405.715H428.839Z" fill="white"/>
<path d="M294.428 164.453C294.122 163.889 293.671 163.419 293.121 163.091C292.57 162.763 291.942 162.59 291.301 162.59H80.8455C79.9019 162.592 78.9978 162.969 78.3312 163.637C77.6646 164.306 77.2898 165.211 77.2891 166.156V292.232H294.864V166.156C294.867 165.56 294.717 164.974 294.428 164.453Z" fill="#3F3D56"/>
<path d="M77.0977 288.818V304.376C77.0976 305.021 77.2246 305.66 77.4712 306.256C77.7178 306.852 78.0792 307.393 78.5348 307.849C78.9905 308.305 79.5314 308.667 80.1268 308.914C80.7221 309.161 81.3602 309.288 82.0046 309.288H162.31V339.992H161.243C161.159 339.992 161.077 340.008 160.999 340.04C160.922 340.072 160.852 340.119 160.792 340.178C160.733 340.238 160.686 340.308 160.654 340.385C160.622 340.463 160.606 340.546 160.606 340.63V342.765C160.606 342.849 160.622 342.932 160.654 343.009C160.686 343.087 160.733 343.157 160.792 343.216C160.852 343.276 160.922 343.323 160.999 343.355C161.077 343.387 161.159 343.403 161.243 343.403H211.096C211.179 343.403 211.262 343.387 211.34 343.355C211.417 343.323 211.487 343.276 211.546 343.216C211.606 343.157 211.653 343.087 211.685 343.009C211.717 342.932 211.733 342.849 211.733 342.765V340.63C211.733 340.546 211.717 340.463 211.685 340.385C211.653 340.308 211.606 340.238 211.546 340.178C211.487 340.119 211.417 340.072 211.34 340.04C211.262 340.008 211.179 339.992 211.096 339.992H210.029V309.288H290.334C290.979 309.288 291.617 309.161 292.212 308.914C292.807 308.667 293.348 308.305 293.804 307.849C294.26 307.393 294.621 306.852 294.868 306.256C295.114 305.66 295.241 305.021 295.241 304.376V288.818H77.0977Z" fill="#3F3D56"/>
<path d="M183.535 244.166C194.634 244.166 203.632 235.16 203.632 224.051C203.632 212.941 194.634 203.936 183.535 203.936C172.435 203.936 163.438 212.941 163.438 224.051C163.438 235.16 172.435 244.166 183.535 244.166Z" fill="#6C63FF"/>
<path d="M234.74 111.156H231.53C231.53 86.8687 207.515 70.9534 183.288 70.9406C179.764 70.9303 176.248 71.2725 172.792 71.9622C168.902 72.7396 164.864 73.6713 160.897 74.8857C145.253 79.6853 130.745 88.9634 130.745 111.156C130.742 115.466 131.29 119.759 132.375 123.929L129.268 124.739C128.116 120.304 127.534 115.739 127.535 111.156C127.535 91.7648 135.489 78.4452 149.227 70.5037C156.448 66.3273 165.262 63.6351 175.36 62.3244C179.562 61.7648 183.81 61.6357 188.039 61.9388C215.899 63.9435 234.74 85.3267 234.74 111.156Z" fill="#6C63FF"/>
<path d="M240.086 112.936L238.822 103.581C238.51 101.219 237.373 99.0427 235.612 97.4387C234.482 96.3929 233.128 95.6181 231.655 95.1729C230.181 94.7276 228.626 94.6236 227.106 94.8686L225.097 95.1448C224.547 95.2173 224.017 95.3983 223.538 95.6773C223.058 95.9564 222.639 96.3279 222.304 96.7704C221.967 97.2114 221.72 97.715 221.578 98.2521C221.436 98.7891 221.401 99.3491 221.476 99.8995L224.397 121.45C224.517 122.328 224.911 123.146 225.521 123.789C226.132 124.431 226.929 124.865 227.799 125.029C228.057 125.08 228.32 125.106 228.583 125.106C228.772 125.106 228.96 125.093 229.148 125.067L231.394 124.765C232.764 124.583 234.082 124.123 235.268 123.412C236.454 122.702 237.482 121.756 238.289 120.634C238.462 120.39 238.629 120.139 238.783 119.882C239.986 117.78 240.445 115.332 240.086 112.936Z" fill="#6C63FF"/>
<path d="M223.8 95.5361C223.211 95.8227 222.698 96.2456 222.304 96.7698C221.967 97.2108 221.72 97.7144 221.578 98.2514C221.436 98.7885 221.401 99.3484 221.476 99.8989L224.397 121.449C224.517 122.327 224.911 123.146 225.521 123.788C226.132 124.43 226.929 124.864 227.799 125.028L223.8 95.5361Z" fill="white"/>
<path d="M240.088 112.936L238.823 103.581C238.511 101.218 237.374 99.0426 235.613 97.4385L238.521 118.879C238.565 119.224 238.653 119.561 238.784 119.882C239.988 117.779 240.447 115.332 240.088 112.936V112.936Z" fill="#3F3D56"/>
<path d="M230.091 119.676C230.97 119.557 231.411 117.465 231.078 115.003C230.744 112.542 229.762 110.643 228.883 110.763C228.005 110.882 227.563 112.974 227.897 115.435C228.231 117.897 229.213 119.796 230.091 119.676Z" fill="#3F3D56"/>
<path d="M228.166 108.111C229.044 107.992 229.485 105.9 229.152 103.438C228.818 100.977 227.836 99.0779 226.957 99.1972C226.079 99.3164 225.638 101.408 225.971 103.87C226.305 106.331 227.287 108.23 228.166 108.111Z" fill="#3F3D56"/>
<path d="M240.363 112.609C241.241 112.49 241.683 110.398 241.349 107.936C241.016 105.475 240.033 103.576 239.155 103.695C238.276 103.814 237.835 105.907 238.169 108.368C238.502 110.829 239.485 112.728 240.363 112.609Z" fill="#3F3D56"/>
<path d="M183.288 70.9406C179.764 70.9303 176.248 71.2725 172.792 71.9622C168.902 72.7396 164.864 73.6713 160.897 74.8857C154.702 74.5837 150.145 72.9774 149.227 70.5037C156.448 66.3273 165.262 63.6351 175.36 62.3244C179.562 61.7648 183.81 61.6357 188.039 61.9388C188.486 62.2015 188.873 62.556 189.174 62.979C189.475 63.402 189.683 63.884 189.785 64.3933C190.086 66.6293 187.538 69.0066 183.288 70.9406Z" fill="#3F3D56"/>
<path d="M142.305 133.452L137.362 112.885C137.186 112.143 136.794 111.47 136.237 110.95C135.68 110.429 134.981 110.086 134.229 109.962C134.017 109.928 133.802 109.911 133.587 109.91C133.284 109.911 132.983 109.948 132.689 110.019L130.776 110.482C128.312 111.078 126.186 112.628 124.864 114.792C123.541 116.955 123.13 119.555 123.721 122.022L125.935 131.248C126.441 133.421 127.645 135.366 129.363 136.787C129.642 137.012 129.933 137.22 130.236 137.41C131.312 138.085 132.513 138.538 133.766 138.741C135.02 138.944 136.301 138.893 137.535 138.592L139.442 138.13C139.946 138.012 140.42 137.791 140.835 137.481C141.451 137.031 141.92 136.408 142.182 135.69C142.444 134.973 142.487 134.194 142.305 133.452Z" fill="#6C63FF"/>
<path d="M131.942 129.625C132.804 129.417 133.032 127.291 132.451 124.876C131.871 122.461 130.701 120.672 129.84 120.879C128.978 121.087 128.75 123.213 129.331 125.628C129.911 128.043 131.081 129.832 131.942 129.625Z" fill="#3F3D56"/>
<path d="M125.524 131.552C126.386 131.345 126.614 129.219 126.033 126.804C125.453 124.389 124.283 122.599 123.422 122.807C122.56 123.014 122.332 125.14 122.913 127.555C123.493 129.97 124.663 131.76 125.524 131.552Z" fill="#3F3D56"/>
<path d="M142.62 133.375L137.677 112.808C137.485 112.005 137.06 111.277 136.456 110.714C135.852 110.152 135.095 109.781 134.281 109.646L141.028 137.738C141.694 137.249 142.201 136.574 142.485 135.798C142.768 135.021 142.815 134.178 142.62 133.375V133.375Z" fill="white"/>
<path d="M124.839 117.947C124.702 117.375 124.446 116.839 124.088 116.373C123.393 118.174 123.265 120.145 123.722 122.021L125.936 131.247C126.442 133.42 127.647 135.366 129.364 136.786L124.839 117.947Z" fill="#3F3D56"/>
</g>
<defs>
<clipPath id="clip0_562_65">
<rect width="546" height="476" fill="white"/>
</clipPath>
</defs>
</svg>
