<svg width="72" height="72" viewBox="0 0 72 72" fill="none" xmlns="http://www.w3.org/2000/svg">
<path d="M0 0V72H72V0H0ZM38.5714 55.9286C38.5714 62.9373 34.4314 66.3541 28.4384 66.3541C23.0255 66.3541 19.8836 63.5512 18.2893 60.1682L23.7986 56.8334C24.8609 58.7186 25.6677 60.3129 27.9868 60.3129C29.9154 60.3129 31.5 59.4434 31.5 56.0604V33.4286H38.5714V55.9286ZM54.5384 66.1934C48.2561 66.1934 44.1964 63.3584 42.2148 59.4434L47.7321 56.25C49.1786 58.6189 51.067 60.1971 54.4018 60.1971C57.2046 60.1971 58.8327 58.9564 58.8327 57.023C58.8327 54.7039 57.1564 53.8827 54.0627 52.523L52.372 51.7966C47.4895 49.7202 44.2527 47.1102 44.2527 41.5993C44.2527 36.5255 48.1179 32.8195 54.1591 32.8195C58.4614 32.8195 61.552 34.1566 63.7779 38.0716L58.5 41.4643C57.3396 39.3862 56.0893 38.5714 54.1511 38.5714C52.1695 38.5714 50.9127 39.8282 50.9127 41.4643C50.9127 43.4941 52.1695 44.3154 55.0687 45.5721L56.7595 46.297C62.5114 48.7623 65.7498 51.2791 65.7498 56.9298C65.7514 63.0209 60.967 66.1934 54.5384 66.1934Z" fill="#EAA43B"/>
</svg>
