<svg width="12" height="12" viewBox="0 0 12 12" fill="none" xmlns="http://www.w3.org/2000/svg">
<g clip-path="url(#clip0_562_218)">
<path d="M9.75 4.125H2.25C2.04289 4.125 1.875 4.29289 1.875 4.5V9.75C1.875 9.95711 2.04289 10.125 2.25 10.125H9.75C9.95711 10.125 10.125 9.95711 10.125 9.75V4.5C10.125 4.29289 9.95711 4.125 9.75 4.125Z" stroke="black" stroke-width="1.125" stroke-linecap="round" stroke-linejoin="round"/>
<path d="M4.3125 4.125V2.4375C4.3125 1.98995 4.49029 1.56072 4.80676 1.24426C5.12323 0.92779 5.55245 0.75 6 0.75C6.44755 0.75 6.87677 0.92779 7.19324 1.24426C7.50971 1.56072 7.6875 1.98995 7.6875 2.4375V4.125" stroke="black" stroke-width="1.125" stroke-linecap="round" stroke-linejoin="round"/>
<path d="M6 7.875C6.41421 7.875 6.75 7.53921 6.75 7.125C6.75 6.71079 6.41421 6.375 6 6.375C5.58579 6.375 5.25 6.71079 5.25 7.125C5.25 7.53921 5.58579 7.875 6 7.875Z" fill="black"/>
</g>
<defs>
<clipPath id="clip0_562_218">
<rect width="12" height="12" fill="white"/>
</clipPath>
</defs>
</svg>
