<svg width="162" height="64" viewBox="0 0 162 64" fill="none" xmlns="http://www.w3.org/2000/svg">
<g filter="url(#filter0_d_569_2)">
<path d="M49.5 30.0157C49.5 40.7763 40.7699 49.5002 30 49.5002C19.2301 49.5002 10.5 40.7763 10.5 30.0157C10.5 19.2551 19.2301 10.5312 30 10.5312C40.7699 10.5312 49.5 19.2551 49.5 30.0157Z" stroke="#4338CA" shape-rendering="crispEdges"/>
</g>
<g opacity="0.5" filter="url(#filter1_d_569_2)">
<path d="M34.0566 45.969C45.1023 45.969 54.0566 37.0216 54.0566 25.9845C54.0566 14.9474 45.1023 6 34.0566 6C23.0109 6 14.0566 14.9474 14.0566 25.9845C14.0566 37.0216 23.0109 45.969 34.0566 45.969Z" fill="#6C63FF"/>
</g>
<path d="M33.0729 37.998C32.3902 37.998 31.8889 37.646 31.5689 36.942L22.1929 15.502C21.8942 14.7767 21.8622 14.1794 22.0969 13.71C22.3315 13.2407 22.7795 13.006 23.4409 13.006C24.1875 13.006 24.6995 13.3367 24.9769 13.998L33.2009 33.742H32.8489L41.2329 13.998C41.4035 13.614 41.5955 13.358 41.8089 13.23C42.0435 13.0807 42.3529 13.006 42.7369 13.006C43.3769 13.006 43.8142 13.2407 44.0489 13.71C44.3049 14.158 44.3049 14.6594 44.0489 15.214L34.5769 36.942C34.4275 37.2834 34.2249 37.55 33.9689 37.742C33.7342 37.9127 33.4355 37.998 33.0729 37.998ZM49.7226 37.998C49.2533 37.998 48.8586 37.8487 48.5386 37.55C48.24 37.23 48.0906 36.8354 48.0906 36.366V22.126C48.0906 21.6354 48.24 21.2407 48.5386 20.942C48.8586 20.6434 49.2533 20.494 49.7226 20.494C50.2133 20.494 50.608 20.6434 50.9066 20.942C51.2053 21.2407 51.3546 21.6354 51.3546 22.126V36.366C51.3546 36.8354 51.2053 37.23 50.9066 37.55C50.608 37.8487 50.2133 37.998 49.7226 37.998ZM49.7226 17.646C49.1466 17.646 48.6453 17.4434 48.2186 17.038C47.8133 16.6114 47.6106 16.11 47.6106 15.534C47.6106 14.958 47.8133 14.4674 48.2186 14.062C48.6453 13.6354 49.1466 13.422 49.7226 13.422C50.2986 13.422 50.7893 13.6354 51.1946 14.062C51.6213 14.4674 51.8346 14.958 51.8346 15.534C51.8346 16.11 51.6213 16.6114 51.1946 17.038C50.7893 17.4434 50.2986 17.646 49.7226 17.646ZM72.2109 38.03C71.7415 38.03 71.3469 37.8807 71.0269 37.582C70.7282 37.262 70.5789 36.8674 70.5789 36.398V28.526C70.5789 27.31 70.3549 26.318 69.9069 25.55C69.4589 24.782 68.8509 24.2167 68.0829 23.854C67.3362 23.47 66.4722 23.278 65.4909 23.278C64.5949 23.278 63.7842 23.4594 63.0589 23.822C62.3335 24.1847 61.7575 24.6754 61.3309 25.294C60.9042 25.8914 60.6909 26.5847 60.6909 27.374H58.6749C58.6749 26.03 58.9949 24.8354 59.6349 23.79C60.2962 22.7234 61.1922 21.8807 62.3229 21.262C63.4535 20.6434 64.7229 20.334 66.1309 20.334C67.6029 20.334 68.9149 20.654 70.0669 21.294C71.2402 21.9127 72.1575 22.83 72.8189 24.046C73.5015 25.262 73.8429 26.7554 73.8429 28.526V36.398C73.8429 36.8674 73.6829 37.262 73.3629 37.582C73.0642 37.8807 72.6802 38.03 72.2109 38.03ZM59.0589 38.03C58.5895 38.03 58.1949 37.8807 57.8749 37.582C57.5762 37.262 57.4269 36.8674 57.4269 36.398V22.126C57.4269 21.6354 57.5762 21.2407 57.8749 20.942C58.1949 20.6434 58.5895 20.494 59.0589 20.494C59.5495 20.494 59.9442 20.6434 60.2429 20.942C60.5415 21.2407 60.6909 21.6354 60.6909 22.126V36.398C60.6909 36.8674 60.5415 37.262 60.2429 37.582C59.9442 37.8807 59.5495 38.03 59.0589 38.03ZM81.1914 37.998C80.722 37.998 80.3274 37.8487 80.0074 37.55C79.7087 37.23 79.5594 36.8354 79.5594 36.366V22.126C79.5594 21.6354 79.7087 21.2407 80.0074 20.942C80.3274 20.6434 80.722 20.494 81.1914 20.494C81.682 20.494 82.0767 20.6434 82.3754 20.942C82.674 21.2407 82.8234 21.6354 82.8234 22.126V36.366C82.8234 36.8354 82.674 37.23 82.3754 37.55C82.0767 37.8487 81.682 37.998 81.1914 37.998ZM81.3194 17.742C80.85 17.742 80.4554 17.5927 80.1354 17.294C79.8367 16.974 79.6874 16.5794 79.6874 16.11C79.6874 15.662 79.8154 15.2994 80.0714 15.022L83.2074 11.886C83.5274 11.566 83.9114 11.406 84.3594 11.406C84.85 11.406 85.2447 11.566 85.5434 11.886C85.842 12.206 85.9914 12.6007 85.9914 13.07C85.9914 13.2834 85.9594 13.486 85.8954 13.678C85.8314 13.87 85.714 14.0407 85.5434 14.19L82.4394 17.294C82.1407 17.5927 81.7674 17.742 81.3194 17.742ZM96.8316 38.126C95.125 38.126 93.5996 37.742 92.2556 36.974C90.933 36.1847 89.8876 35.1287 89.1196 33.806C88.373 32.462 87.9996 30.9474 87.9996 29.262C87.9996 27.534 88.373 25.998 89.1196 24.654C89.8663 23.31 90.8903 22.2647 92.1916 21.518C93.493 20.75 94.9863 20.366 96.6716 20.366C97.9303 20.366 99.0823 20.6114 100.128 21.102C101.173 21.5714 102.112 22.286 102.944 23.246C103.242 23.5874 103.349 23.9394 103.264 24.302C103.178 24.6647 102.944 24.9847 102.56 25.262C102.261 25.4754 101.93 25.55 101.568 25.486C101.205 25.4007 100.874 25.2087 100.576 24.91C99.5303 23.8007 98.229 23.246 96.6716 23.246C95.5836 23.246 94.6236 23.502 93.7916 24.014C92.9596 24.5047 92.309 25.198 91.8396 26.094C91.3703 26.99 91.1356 28.046 91.1356 29.262C91.1356 30.414 91.3703 31.438 91.8396 32.334C92.3303 33.23 93.0023 33.9447 93.8556 34.478C94.709 34.99 95.701 35.246 96.8316 35.246C97.5783 35.246 98.229 35.1607 98.7836 34.99C99.3596 34.798 99.8823 34.51 100.352 34.126C100.693 33.8487 101.045 33.6994 101.408 33.678C101.77 33.6354 102.09 33.7314 102.368 33.966C102.73 34.2647 102.933 34.606 102.976 34.99C103.018 35.3527 102.89 35.6834 102.592 35.982C101.056 37.4114 99.1356 38.126 96.8316 38.126ZM110.066 37.998C109.597 37.998 109.202 37.8487 108.882 37.55C108.584 37.23 108.434 36.8354 108.434 36.366V22.126C108.434 21.6354 108.584 21.2407 108.882 20.942C109.202 20.6434 109.597 20.494 110.066 20.494C110.557 20.494 110.952 20.6434 111.25 20.942C111.549 21.2407 111.698 21.6354 111.698 22.126V36.366C111.698 36.8354 111.549 37.23 111.25 37.55C110.952 37.8487 110.557 37.998 110.066 37.998ZM110.066 17.646C109.49 17.646 108.989 17.4434 108.562 17.038C108.157 16.6114 107.954 16.11 107.954 15.534C107.954 14.958 108.157 14.4674 108.562 14.062C108.989 13.6354 109.49 13.422 110.066 13.422C110.642 13.422 111.133 13.6354 111.538 14.062C111.965 14.4674 112.178 14.958 112.178 15.534C112.178 16.11 111.965 16.6114 111.538 17.038C111.133 17.4434 110.642 17.646 110.066 17.646ZM125.131 38.158C123.659 38.158 122.336 37.8487 121.163 37.23C120.011 36.59 119.093 35.662 118.411 34.446C117.749 33.23 117.419 31.7367 117.419 29.966V22.094C117.419 21.6247 117.568 21.2407 117.867 20.942C118.187 20.622 118.581 20.462 119.051 20.462C119.52 20.462 119.904 20.622 120.203 20.942C120.523 21.2407 120.683 21.6247 120.683 22.094V29.966C120.683 31.1607 120.907 32.1527 121.355 32.942C121.803 33.71 122.411 34.286 123.179 34.67C123.947 35.0327 124.811 35.214 125.771 35.214C126.688 35.214 127.499 35.0327 128.203 34.67C128.928 34.3074 129.504 33.8167 129.931 33.198C130.357 32.5794 130.571 31.886 130.571 31.118H132.587C132.587 32.4407 132.256 33.6354 131.595 34.702C130.955 35.7687 130.069 36.6114 128.939 37.23C127.829 37.8487 126.56 38.158 125.131 38.158ZM132.203 37.998C131.733 37.998 131.339 37.8487 131.019 37.55C130.72 37.23 130.571 36.8354 130.571 36.366V22.094C130.571 21.6034 130.72 21.2087 131.019 20.91C131.339 20.6114 131.733 20.462 132.203 20.462C132.693 20.462 133.088 20.6114 133.387 20.91C133.685 21.2087 133.835 21.6034 133.835 22.094V36.366C133.835 36.8354 133.685 37.23 133.387 37.55C133.088 37.8487 132.693 37.998 132.203 37.998ZM145.951 38.126C144.458 38.126 143.071 37.902 141.791 37.454C140.532 36.9847 139.551 36.398 138.847 35.694C138.527 35.3527 138.388 34.9687 138.431 34.542C138.495 34.094 138.708 33.7314 139.071 33.454C139.498 33.1127 139.914 32.974 140.319 33.038C140.746 33.0807 141.108 33.262 141.407 33.582C141.77 33.9874 142.346 34.3714 143.135 34.734C143.946 35.0754 144.842 35.246 145.823 35.246C147.06 35.246 147.999 35.0434 148.639 34.638C149.3 34.2327 149.642 33.71 149.663 33.07C149.684 32.43 149.375 31.8754 148.735 31.406C148.116 30.9367 146.975 30.5527 145.311 30.254C143.156 29.8274 141.588 29.1874 140.607 28.334C139.647 27.4807 139.167 26.4354 139.167 25.198C139.167 24.11 139.487 23.214 140.127 22.51C140.767 21.7847 141.588 21.2514 142.591 20.91C143.594 20.5474 144.639 20.366 145.727 20.366C147.135 20.366 148.383 20.59 149.471 21.038C150.559 21.486 151.423 22.1047 152.063 22.894C152.362 23.2354 152.5 23.598 152.479 23.982C152.458 24.3447 152.276 24.654 151.935 24.91C151.594 25.1447 151.188 25.2194 150.719 25.134C150.25 25.0487 149.855 24.8567 149.535 24.558C149.002 24.046 148.426 23.694 147.807 23.502C147.188 23.31 146.474 23.214 145.663 23.214C144.724 23.214 143.924 23.374 143.263 23.694C142.623 24.014 142.303 24.4834 142.303 25.102C142.303 25.486 142.399 25.838 142.591 26.158C142.804 26.4567 143.21 26.734 143.807 26.99C144.404 27.2247 145.279 27.4594 146.431 27.694C148.031 28.014 149.29 28.4194 150.207 28.91C151.146 29.4007 151.818 29.9767 152.223 30.638C152.628 31.278 152.831 32.0247 152.831 32.878C152.831 33.8594 152.564 34.7447 152.031 35.534C151.519 36.3234 150.751 36.9527 149.727 37.422C148.724 37.8914 147.466 38.126 145.951 38.126Z" fill="#D1D5DB"/>
<path d="M157.886 38.51C157.289 38.51 156.766 38.2967 156.318 37.87C155.891 37.422 155.678 36.8994 155.678 36.302C155.678 35.6834 155.891 35.1607 156.318 34.734C156.766 34.286 157.289 34.062 157.886 34.062C158.505 34.062 159.027 34.286 159.454 34.734C159.881 35.1607 160.094 35.6834 160.094 36.302C160.094 36.8994 159.881 37.422 159.454 37.87C159.027 38.2967 158.505 38.51 157.886 38.51Z" fill="#4338CA"/>
<defs>
<filter id="filter0_d_569_2" x="0" y="4.03125" width="60" height="59.9688" filterUnits="userSpaceOnUse" color-interpolation-filters="sRGB">
<feFlood flood-opacity="0" result="BackgroundImageFix"/>
<feColorMatrix in="SourceAlpha" type="matrix" values="0 0 0 0 0 0 0 0 0 0 0 0 0 0 0 0 0 0 127 0" result="hardAlpha"/>
<feOffset dy="4"/>
<feGaussianBlur stdDeviation="5"/>
<feComposite in2="hardAlpha" operator="out"/>
<feColorMatrix type="matrix" values="0 0 0 0 0.647059 0 0 0 0 0.705882 0 0 0 0 0.988235 0 0 0 0.25 0"/>
<feBlend mode="normal" in2="BackgroundImageFix" result="effect1_dropShadow_569_2"/>
<feBlend mode="normal" in="SourceGraphic" in2="effect1_dropShadow_569_2" result="shape"/>
</filter>
<filter id="filter1_d_569_2" x="4.05664" y="0" width="60" height="59.9688" filterUnits="userSpaceOnUse" color-interpolation-filters="sRGB">
<feFlood flood-opacity="0" result="BackgroundImageFix"/>
<feColorMatrix in="SourceAlpha" type="matrix" values="0 0 0 0 0 0 0 0 0 0 0 0 0 0 0 0 0 0 127 0" result="hardAlpha"/>
<feOffset dy="4"/>
<feGaussianBlur stdDeviation="5"/>
<feComposite in2="hardAlpha" operator="out"/>
<feColorMatrix type="matrix" values="0 0 0 0 0.647059 0 0 0 0 0.705882 0 0 0 0 0.988235 0 0 0 0.25 0"/>
<feBlend mode="normal" in2="BackgroundImageFix" result="effect1_dropShadow_569_2"/>
<feBlend mode="normal" in="SourceGraphic" in2="effect1_dropShadow_569_2" result="shape"/>
</filter>
</defs>
</svg>
