<svg width="18" height="18" viewBox="0 0 18 18" fill="none" xmlns="http://www.w3.org/2000/svg">
<g clip-path="url(#clip0_562_469)">
<path d="M15.8557 13.148C15.2974 12.5855 13.9453 11.7646 13.2893 11.4338C12.435 11.0035 12.3647 10.9683 11.6932 11.4672C11.2453 11.8001 10.9475 12.0976 10.4233 11.9858C9.89915 11.874 8.76008 11.2436 7.7627 10.2494C6.76532 9.25517 6.0984 8.08306 5.98626 7.56064C5.87411 7.03822 6.17645 6.74396 6.50622 6.29502C6.97098 5.66221 6.93583 5.55674 6.53856 4.70244C6.22883 4.03799 5.38403 2.69853 4.81942 2.14307C4.21544 1.54646 4.21544 1.65193 3.82626 1.81365C3.50942 1.94696 3.20545 2.109 2.91817 2.29775C2.35567 2.67146 2.04348 2.98189 1.82516 3.44842C1.60684 3.91494 1.50876 5.00865 2.63622 7.05685C3.76368 9.10506 4.55469 10.1524 6.19192 11.785C7.82915 13.4177 9.08809 14.2955 10.9285 15.3277C13.2052 16.6028 14.0785 16.3543 14.5465 16.1363C15.0144 15.9183 15.3262 15.609 15.7006 15.0465C15.8899 14.7597 16.0523 14.456 16.1858 14.1394C16.3479 13.7517 16.4533 13.7517 15.8557 13.148Z" stroke="#A5B4FC" stroke-width="2" stroke-miterlimit="10"/>
</g>
<defs>
<clipPath id="clip0_562_469">
<rect width="18" height="18" fill="white"/>
</clipPath>
</defs>
</svg>
