<svg width="72" height="72" viewBox="0 0 72 72" fill="none" xmlns="http://www.w3.org/2000/svg">
<path d="M59.1965 23.3362C58.4296 23.0424 57.6571 22.7687 56.8791 22.5153C57.0081 21.9265 57.1271 21.3343 57.2361 20.7388C58.991 11.1669 57.8436 3.45551 53.9273 0.917014C50.1774 -1.51887 44.0277 1.01963 37.8239 7.08915C37.214 7.68802 36.6165 8.30484 36.0315 8.93961C35.6415 8.51793 35.2415 8.10522 34.8315 7.70148C28.3293 1.2114 21.8121 -1.52223 17.9003 1.02468C14.1504 3.4656 13.036 10.7144 14.6154 19.7867C14.7734 20.6839 14.9509 21.5771 15.1479 22.4665C14.2515 22.7515 13.3626 23.0657 12.4825 23.4085C4.8688 26.3945 0 31.0762 0 35.9311C0 40.9476 5.22578 45.9775 13.165 49.0274C13.8089 49.273 14.4589 49.5012 15.1149 49.712C14.9019 50.6642 14.7134 51.627 14.5494 52.6004C13.0495 61.5163 14.2194 68.5935 17.9618 71.0193C21.8271 73.5241 28.3113 70.9503 34.6321 64.7428C35.132 64.2516 35.632 63.7329 36.132 63.1867C36.764 63.872 37.4139 64.537 38.0819 65.1819C44.2017 71.1 50.2449 73.4905 53.9813 71.0579C57.8436 68.5447 59.099 60.941 57.4686 51.6903C57.3436 50.9838 57.1996 50.2627 57.0366 49.527C57.4926 49.3756 57.9391 49.2191 58.3761 49.0576C66.6257 45.9842 72 41.0148 72 35.9362C71.997 31.0577 66.9722 26.3457 59.1965 23.3362ZM39.8473 9.69662C45.1616 4.49682 50.1294 2.44449 52.3943 3.9114C54.8047 5.4742 55.7422 11.7759 54.2272 20.0407C54.1272 20.579 54.0192 21.1156 53.9033 21.6506C50.7318 20.8416 47.5158 20.2706 44.2767 19.9414C42.422 16.9452 40.389 14.0929 38.1914 11.4041C38.7294 10.8187 39.2804 10.2495 39.8443 9.69662H39.8473ZM21.2586 40.0795C21.9096 41.4926 22.5901 42.8883 23.3 44.2666C24.023 45.673 24.7765 47.0586 25.5604 48.4234C23.3316 48.1517 21.1168 47.7513 18.9247 47.224C19.5607 44.916 20.3437 42.5188 21.2586 40.0795ZM21.2586 31.9493C20.3587 29.5622 19.5967 27.2138 18.9712 24.9461C21.0261 24.4297 23.216 24.0074 25.4989 23.6878C24.734 25.0269 23.998 26.3855 23.291 27.7639C22.5841 29.1422 21.9051 30.5373 21.2541 31.9493H21.2586ZM22.8935 36.0152C23.8415 33.798 24.8625 31.6235 25.9564 29.4915C27.0494 27.3607 28.2128 25.2786 29.4468 23.2454C31.5887 23.0637 33.7846 22.9678 36.003 22.9678C38.2214 22.9678 40.4308 23.0637 42.5712 23.247C43.7922 25.2758 44.9486 27.3506 46.0406 29.4713C47.1325 31.5921 48.167 33.7565 49.144 35.9648C48.18 38.1898 47.148 40.3734 46.0481 42.5154C44.9571 44.6462 43.8072 46.7345 42.5982 48.7801C40.4608 48.9483 38.2484 49.0408 35.9985 49.0408C33.7486 49.0408 31.5782 48.9617 29.4798 48.8087C28.2368 46.7687 27.0639 44.6776 25.9609 42.5356C24.858 40.3935 23.834 38.2201 22.889 36.0152H22.8935ZM48.7105 44.2431C49.4354 42.8322 50.1314 41.4029 50.7984 39.955C51.7127 42.28 52.5197 44.6563 53.2163 47.0743C50.9984 47.6344 48.756 48.0639 46.4981 48.3612C47.26 47.0053 47.9975 45.6326 48.7105 44.2431ZM50.7684 31.9509C50.1044 30.5323 49.4139 29.1304 48.697 27.7453C47.997 26.3794 47.2675 25.0302 46.5086 23.6979C48.805 24.0242 51.0084 24.4583 53.0738 24.9882C52.4097 27.3509 51.6403 29.6748 50.7684 31.9509ZM36.033 13.8753C37.5308 15.7108 38.945 17.6299 40.2703 19.6252C37.4354 19.4738 34.5986 19.4738 31.7597 19.6252C33.1591 17.5493 34.5916 15.6231 36.033 13.8753ZM19.4482 4.01401C21.8571 2.44617 27.1834 4.68691 32.7976 10.2837C33.1561 10.642 33.5176 11.0172 33.8776 11.4058C31.6687 14.0942 29.6213 16.944 27.7488 19.9364C24.5169 20.263 21.3072 20.8249 18.1402 21.6186C17.9573 20.7932 17.7923 19.9622 17.6453 19.1256C16.2878 11.3486 17.1863 5.48597 19.4482 4.01401ZM15.9368 46.3812C15.3369 46.1894 14.7444 45.9814 14.1594 45.7571C10.6496 44.4113 7.75018 42.655 5.75976 40.7423C3.97783 39.0281 3.07487 37.3173 3.07487 35.9311C3.07487 32.9855 6.98371 29.2274 13.5024 26.6788C14.3214 26.3592 15.1474 26.067 15.9803 25.8024C16.9485 29.2918 18.121 32.7058 19.4902 36.022C18.1047 39.384 16.9176 42.8445 15.9368 46.3812ZM32.6056 62.1387C29.8113 64.8841 27.0124 66.8305 24.545 67.8112C22.3281 68.691 20.5626 68.7163 19.4962 68.0249C17.2253 66.5529 16.2803 60.8686 17.5688 53.2447C17.7218 52.3475 17.8968 51.4503 18.0937 50.5531C21.2924 51.3259 24.5343 51.8537 27.7968 52.1328C29.6876 55.1408 31.7519 58.0067 33.9766 60.7122C33.5296 61.2051 33.0721 61.6795 32.6056 62.1387ZM36.1185 58.2326C34.6606 56.4645 33.2056 54.5081 31.7867 52.4053C33.1656 52.4658 34.5696 52.4961 35.9985 52.4961C37.4654 52.4961 38.9174 52.4608 40.3483 52.3885C39.0278 54.4158 37.616 56.3664 36.1185 58.2326ZM54.7957 63.0421C54.3667 65.6395 53.5043 67.3722 52.4378 68.0652C50.1684 69.5422 45.3161 67.6228 40.0843 62.561C39.4844 61.9823 38.8844 61.3615 38.2739 60.7105C40.4552 57.9945 42.4712 55.117 44.3082 52.0974C47.5888 51.7857 50.8464 51.2208 54.0577 50.4068C54.2047 51.073 54.3347 51.7257 54.4477 52.3649C55.1692 56.4528 55.2727 60.1503 54.7957 63.0421ZM57.4056 45.7756C57.0126 45.9219 56.6076 46.0633 56.1967 46.2012C55.1897 42.6953 53.9714 39.2702 52.5503 35.9496C53.9181 32.6733 55.0887 29.2979 56.0542 25.8461C56.7906 26.0867 57.5061 26.339 58.1946 26.6065C64.8573 29.1837 68.9221 32.999 68.9221 35.9311C68.9221 39.0601 64.5318 43.121 57.4056 45.7756Z" fill="#2A94E1"/>
</svg>
