<svg width="16" height="16" viewBox="0 0 16 16" fill="none" xmlns="http://www.w3.org/2000/svg">
<path d="M2.66602 2.66727V6.0006H3.05402M13.2913 7.33394C13.1439 6.16251 12.612 5.07311 11.7789 4.23645C10.9459 3.3998 9.85877 2.86318 8.68799 2.7107C7.51722 2.55821 6.32893 2.79848 5.30937 3.39384C4.2898 3.98921 3.49658 4.90602 3.05402 6.0006M3.05402 6.0006H5.99935M13.3327 13.3339V10.0006H12.9453M12.9453 10.0006C12.5021 11.0945 11.7087 12.0106 10.6892 12.6055C9.66977 13.2003 8.48184 13.4403 7.31142 13.2879C6.14099 13.1354 5.05415 12.5992 4.22104 11.7631C3.38793 10.927 2.85559 9.83823 2.70735 8.66727M12.9453 10.0006H9.99935" stroke="black" stroke-width="2" stroke-linecap="round" stroke-linejoin="round"/>
</svg>
