<svg width="18" height="78" viewBox="0 0 18 78" fill="none" xmlns="http://www.w3.org/2000/svg">
<path d="M0 1.70432V16.3022C0.00156147 16.7532 0.181839 17.1851 0.501306 17.5033C0.820774 17.8216 1.25337 18.0002 1.7043 18H16.3023C16.7525 17.9999 17.1843 17.821 17.5027 17.5027C17.821 17.1843 17.9999 16.7525 18 16.3022V1.70432C18.0002 1.2534 17.8216 0.820771 17.5033 0.501306C17.1851 0.181841 16.7532 0.00157183 16.3023 0H1.7043C1.2527 0.00131604 0.819959 0.181333 0.500626 0.500666C0.181293 0.819998 0.00131604 1.25272 0 1.70432Z" fill="#6C63FF"/>
<path d="M0 31.7043V46.3023C0.00156147 46.7532 0.181839 47.1851 0.501306 47.5033C0.820774 47.8216 1.25337 48.0002 1.7043 48H16.3023C16.7525 47.9999 17.1843 47.821 17.5027 47.5027C17.821 47.1843 17.9999 46.7525 18 46.3023V31.7043C18.0002 31.2534 17.8216 30.8208 17.5033 30.5013C17.1851 30.1818 16.7532 30.0016 16.3023 30H1.7043C1.2527 30.0013 0.819959 30.1813 0.500626 30.5006C0.181293 30.82 0.00131604 31.2527 0 31.7043Z" fill="#6C63FF"/>
<path d="M0 61.7043V76.3022C0.00157353 76.7531 0.181843 77.1851 0.501306 77.5033C0.82077 77.8215 1.25337 78.0001 1.7043 78H16.3023C16.7525 77.9999 17.1843 77.821 17.5027 77.5026C17.821 77.1842 17.9999 76.7525 18 76.3022V61.7043C18.0002 61.2534 17.8216 60.8208 17.5033 60.5013C17.1851 60.1818 16.7532 60.0016 16.3023 60H1.7043C1.2527 60.0013 0.819959 60.1813 0.500626 60.5007C0.181293 60.82 0.00131604 61.2527 0 61.7043Z" fill="#E6E6E6"/>
</svg>
