<svg width="72" height="72" viewBox="0 0 72 72" fill="none" xmlns="http://www.w3.org/2000/svg">
<g clip-path="url(#clip0_391_10)">
<path d="M71.9684 46.1339C71.7617 44.4576 70.9123 43.0036 69.4371 41.8069C69.4188 41.7845 69.3986 41.7638 69.3767 41.745L69.3021 41.6916L69.2782 41.6747L68.4949 41.1122L68.4682 41.0925L68.3684 41.0222C68.3318 41.0008 68.2925 40.9843 68.2517 40.973C65.7738 39.4978 61.6718 38.4642 55.3957 40.6791C53.8981 38.159 53.7279 36.1397 54.7306 33.0459C54.9092 32.5073 54.7432 32.1516 54.2088 31.9209C53.1345 31.4639 51.6635 31.6973 50.6201 31.973C50.1335 32.0995 49.841 32.3751 49.7482 32.7928C49.0873 35.8865 47.1664 38.7131 45.3087 41.4412L45.199 41.6015C44.0543 39.1744 44.292 37.2942 45.0893 34.9387C45.2482 34.4691 45.1231 34.1569 44.6829 33.9234C43.4538 33.2892 41.6103 33.7251 40.8762 33.9417C39.9453 34.2131 38.9468 36.7289 37.8317 39.7411C37.5504 40.499 37.3085 41.1473 37.1637 41.4497C36.8192 42.1528 36.4901 42.9544 36.1413 43.8051C35.3539 45.7303 34.4665 47.8973 33.1981 49.2586C32.7368 48.239 33.4624 46.6317 34.167 45.0722C35.0009 43.2286 35.7884 41.4862 34.8813 40.3739C34.7379 40.198 34.56 40.0534 34.3585 39.9489C34.157 39.8444 33.9363 39.7823 33.7099 39.7664C33.4146 39.7439 33.1181 39.7921 32.8451 39.907C32.9393 39.1125 32.9435 38.4853 32.7115 37.7273C32.3796 36.6459 31.5176 36.0398 30.3307 36.0722C27.6279 36.1509 25.3413 38.1647 23.8971 39.8409C22.9353 40.9659 20.8034 41.8237 18.9317 42.5761C18.192 42.8897 17.4888 43.1709 16.9024 43.4522C15.9673 42.6619 14.779 41.8645 13.5274 41.0222C10.0118 38.6625 6.02791 35.9864 5.8901 32.3583C5.69322 26.9991 11.7963 23.198 17.1232 20.4853C21.1606 18.4322 24.6706 17.0709 27.8543 16.327C32.3262 15.2822 36.1034 15.4931 39.079 16.9514C40.7074 17.7487 41.4696 19.4826 40.9859 21.2658C39.7203 25.8994 34.4763 29.0747 29.9918 30.5034C27.2904 31.364 24.9912 31.724 22.9606 31.6059C20.4153 31.4583 18.3368 30.1814 17.4481 29.6372C17.3057 29.5399 17.1551 29.4552 16.9981 29.3841L16.9573 29.3742C16.8768 29.3542 16.7924 29.3567 16.7132 29.3815C16.6341 29.4063 16.5633 29.4524 16.5087 29.5148C16.3259 29.7328 16.3906 30.0773 16.4567 30.2517C17.3215 32.5116 19.1074 33.9389 21.7638 34.4944C22.6332 34.6685 23.5182 34.7528 24.4048 34.7461C30.6218 34.7461 38.5545 31.1616 41.4682 28.2098C43.4553 26.1989 44.9023 24.1317 45.5014 20.5669C46.1271 16.8333 43.5959 14.2387 41.0168 13.0434C34.7492 10.1508 27.6307 11.294 22.7623 12.7622C17.067 14.4792 11.1748 17.6011 6.59885 21.3305C0.956973 25.9247 -1.08209 30.1898 0.535097 34.0219C2.19588 37.9495 6.24588 40.4062 10.1623 42.7828C11.4279 43.5492 12.6317 44.279 13.7159 45.0328C13.3896 45.1917 13.0563 45.3534 12.7174 45.5151C9.42963 47.1084 5.70025 48.9014 3.63166 51.8644C2.12978 54.023 1.84853 56.1717 2.79635 58.2515C3.3026 59.3583 4.2026 60.1092 5.45275 60.4833C6.10308 60.6675 6.77657 60.757 7.45244 60.749C9.88666 60.749 12.5656 59.7647 14.0238 58.8548C16.6001 57.2376 18.2693 55.0664 18.9865 52.4016C19.6249 50.0306 19.4717 47.6751 18.5435 45.5728L21.7006 43.9809C20.1776 49.0434 21.3448 52.0669 22.6273 53.7347C23.0998 54.3492 23.952 54.719 24.904 54.7359C25.856 54.7528 26.7321 54.3942 27.2271 53.7839C28.1637 52.6237 28.8556 51.2667 29.4926 49.9097C29.4588 50.7956 29.501 51.6928 29.8034 52.4536C30.0748 53.1384 30.522 53.5926 31.0985 53.767C31.7117 53.954 32.4303 53.7966 33.1221 53.3241C36.2398 51.1908 38.3717 46.0706 40.0845 41.9545C40.3278 41.3695 40.5612 40.807 40.7876 40.2811C41.2114 41.7976 41.8008 43.2628 42.5454 44.6503C42.7113 44.9512 42.6973 45.0834 42.4723 45.3309C42.1334 45.7022 41.6609 46.1508 41.1603 46.6261C39.6443 48.0647 37.7571 49.8605 37.504 51.4397C37.4056 52.0725 37.8415 52.649 38.5179 52.7798C40.5528 53.1848 43.0038 52.5928 45.0767 51.1978C46.961 49.9322 47.6698 48.1673 47.186 45.968C46.7178 43.8501 47.7865 41.2205 50.3628 38.1464C50.7846 39.9084 51.3471 41.333 52.1234 42.5803L52.1023 42.5972C50.2263 44.2355 47.6557 46.4784 48.0551 49.1995C48.0886 49.4583 48.1757 49.7073 48.3108 49.9305C48.4459 50.1537 48.6261 50.3464 48.8398 50.4961C49.0682 50.6503 49.326 50.7556 49.597 50.8055C49.8681 50.8553 50.1465 50.8486 50.4148 50.7858C52.8715 50.2697 54.7207 49.2305 56.0651 47.6119C57.4095 45.9933 56.9187 44.1989 56.4659 42.8067C59.9815 41.8533 63.1118 41.8772 66.0424 42.877C67.6878 43.4395 68.8676 44.3634 69.5482 45.6389C70.4046 47.2434 69.942 48.7242 68.2418 49.8084C67.7201 50.1417 67.4684 50.3456 67.4529 50.603C67.4495 50.6627 67.4604 50.7223 67.4849 50.7769C67.5094 50.8315 67.5466 50.8794 67.5935 50.9165C67.7904 51.0783 68.3979 51.3595 69.7718 50.4947C71.0374 49.7001 71.7799 48.6187 71.9698 47.2603C72.008 46.8858 72.0075 46.5083 71.9684 46.1339ZM15.7563 49.658L15.7423 49.838C15.5229 51.8967 14.4767 53.6911 12.6274 55.1817C11.4659 56.1183 10.2045 56.6934 9.07666 56.8031C8.28916 56.879 7.71682 56.7722 7.3765 56.4839C7.12197 56.2687 6.98557 55.9467 6.95463 55.4995C6.724 51.9164 12.3434 48.3558 15.506 47.1844C15.7317 47.9882 15.8164 48.8252 15.7563 49.658ZM30.1493 39.5526C29.629 42.5184 28.1117 48.1167 25.7267 50.2894C25.6128 50.3934 25.5171 50.43 25.4735 50.4201C25.4299 50.4103 25.3962 50.3583 25.361 50.2795C24.5651 48.4345 24.859 45.3183 26.0642 42.87C26.9909 40.9828 28.3142 39.7326 29.7935 39.3544C29.8549 39.3374 29.9183 39.3284 29.982 39.3276C30.0318 39.3241 30.0813 39.3375 30.1226 39.3656C30.14 39.3931 30.1514 39.424 30.156 39.4563C30.1606 39.4885 30.1583 39.5213 30.1493 39.5526ZM41.8901 50.3639C41.4415 50.8322 40.827 50.7689 40.9718 50.5973L43.2556 48.173C43.0714 49.0069 42.5271 49.6973 41.8901 50.3639ZM51.364 48.2672C51.1468 48.3742 50.9118 48.4405 50.6707 48.4626C50.606 47.1872 51.8421 45.7514 53.0613 44.7937C53.389 46.1241 52.7182 47.5303 51.364 48.2672Z" fill="#951188"/>
</g>
<defs>
<clipPath id="clip0_391_10">
<rect width="72" height="72" fill="white"/>
</clipPath>
</defs>
</svg>
