<svg width="547" height="301" viewBox="0 0 547 301" fill="none" xmlns="http://www.w3.org/2000/svg">
<g clip-path="url(#clip0_562_358)">
<path d="M83.4427 257.192C71.296 266.256 67.8535 282.203 67.8535 282.203C67.8535 282.203 84.1046 283.455 96.2513 274.391C108.398 265.328 111.84 249.38 111.84 249.38C111.84 249.38 95.5894 248.128 83.4427 257.192Z" fill="#F1F1F1"/>
<path d="M88.5018 261.448C82.664 275.442 68.0433 282.654 68.0433 282.654C68.0433 282.654 62.8877 267.176 68.7255 253.182C74.5633 239.187 89.1838 231.976 89.1838 231.976C89.1838 231.976 94.3396 247.453 88.5018 261.448Z" fill="#F1F1F1"/>
<path d="M437.973 220.991C436.682 212.289 436.341 203.472 436.956 194.696L437.973 180.171C432.37 191.331 433.636 206.02 437.973 220.991V220.991Z" fill="#CACACA"/>
<path d="M442.342 223.421C441.72 218.228 441.557 212.99 441.852 207.769L442.342 199.123C439.646 205.766 440.255 214.509 442.342 223.421Z" fill="#CACACA"/>
<path d="M461.762 234.113V238.973C461.76 239.359 461.606 239.728 461.333 240.001C461.06 240.274 460.691 240.429 460.305 240.431H457.878C457.814 240.43 457.751 240.443 457.692 240.467C457.633 240.491 457.579 240.527 457.534 240.572C457.489 240.618 457.453 240.671 457.429 240.73C457.405 240.789 457.392 240.853 457.393 240.917V280.765C457.391 281.151 457.237 281.521 456.964 281.794C456.691 282.067 456.322 282.221 455.936 282.223H426.323C425.937 282.223 425.566 282.069 425.293 281.796C425.02 281.522 424.867 281.152 424.866 280.765V240.917C424.866 240.788 424.815 240.664 424.724 240.573C424.633 240.482 424.51 240.431 424.381 240.431H421.468C421.082 240.43 420.712 240.277 420.439 240.003C420.166 239.73 420.012 239.359 420.012 238.973V234.113C420.011 233.922 420.049 233.732 420.122 233.555C420.195 233.378 420.302 233.217 420.438 233.082C420.573 232.946 420.734 232.839 420.91 232.766C421.087 232.693 421.277 232.655 421.468 232.655H460.305C460.691 232.656 461.061 232.81 461.334 233.084C461.607 233.357 461.761 233.727 461.762 234.113V234.113Z" fill="#F2F2F2"/>
<path d="M457.436 241.451H424.91V242.909H457.436V241.451Z" fill="#E6E6E6"/>
<path d="M457.393 262.904C446.509 267.413 435.506 267.462 424.381 262.904V252.633C435.091 249.032 446.683 249.032 457.393 252.633V262.904Z" fill="#E6E6E6"/>
<path d="M275.08 105.865C299.377 105.865 319.073 86.1488 319.073 61.8272C319.073 37.5056 299.377 17.7891 275.08 17.7891C250.783 17.7891 231.086 37.5056 231.086 61.8272C231.086 86.1488 250.783 105.865 275.08 105.865Z" fill="#FEB8B8"/>
<path d="M316.17 23.8344C309.593 13.1429 299.297 5.26476 287.265 1.71645L281.864 5.66173V0.538903C278.974 0.0961827 276.049 -0.0743659 273.128 0.0295003L268.468 4.24986V0.380129C261.569 1.23831 254.923 3.5181 248.948 7.07573C242.973 10.6334 237.799 15.3917 233.752 21.0506C223.633 35.6533 221.925 55.9689 231.878 70.6887C234.61 62.2837 237.926 54.3974 240.659 45.9932C242.806 46.2862 244.983 46.2968 247.133 46.0246L250.456 38.2606L251.385 45.696C261.688 44.7978 276.97 42.8247 286.737 41.0172L285.787 35.3128L291.47 40.0528C294.462 39.3634 296.239 38.7377 296.092 38.2598C303.357 49.9827 312.247 57.4699 319.51 69.1928C322.269 52.6629 325.445 38.9185 316.17 23.8344Z" fill="#2F2E41"/>
<path d="M369.698 175.072C368.185 165.962 366.625 156.676 362.395 148.469C359.615 143.093 355.202 137.97 349.253 136.908C348.081 136.803 346.929 136.536 345.831 136.115C344.088 135.274 320.664 121.889 316.941 119.557C313.744 117.556 308.698 113.85 306.153 113.85C303.594 113.794 293.778 116.081 255.468 113.083C255.468 113.083 244.944 117.235 236.801 122.271C236.677 122.189 197.038 143.497 195.549 143.441C192.729 143.322 190.108 145.129 188.491 147.405C186.874 149.681 186.116 152.499 185.322 155.224C193.98 174.524 201.902 193.849 210.56 213.149C210.966 213.876 211.181 214.693 211.186 215.526C211.012 216.39 210.644 217.203 210.109 217.903C205.863 224.731 205.998 233.318 206.462 241.343C206.926 249.368 207.5 257.844 203.918 265.037C202.943 267.012 201.676 268.819 200.749 270.794C198.579 275.266 197.794 289.571 199.062 294.376L357.89 298.931C354.475 289.534 369.698 175.072 369.698 175.072Z" fill="#6C63FF"/>
<path d="M171.594 214.005C171.277 216.299 171.245 218.625 171.499 220.927L173.776 253.653C173.989 256.737 174.2 259.814 174.489 262.891C175.035 268.862 175.851 274.785 176.864 280.7C176.887 281.54 177.241 282.336 177.85 282.914C178.459 283.493 179.272 283.806 180.111 283.784C190.132 285.907 200.485 285.822 210.712 285.244C226.318 284.372 266.243 282.722 268.682 279.55C271.122 276.379 269.7 271.248 266.52 268.683C263.339 266.118 210.652 259.866 210.652 259.866C211.167 255.782 212.72 251.936 214.193 248.059C216.839 241.182 219.31 234.079 219.358 226.712C219.405 219.346 216.633 211.6 210.604 207.38C205.645 203.915 199.26 203.273 193.217 203.415C188.821 203.542 181.224 202.487 177.208 204.208C174.03 205.609 172.188 210.89 171.594 214.005Z" fill="#FBBEBE"/>
<path d="M184.864 155.811C184.092 156.62 183.494 157.578 183.105 158.627C176.702 173.072 172.92 188.543 171.936 204.316C171.954 205.085 171.776 205.846 171.421 206.529C171.071 206.982 170.682 207.404 170.257 207.789C169.887 208.229 169.607 208.737 169.432 209.284C169.258 209.832 169.194 210.409 169.242 210.982C169.291 211.555 169.452 212.112 169.715 212.623C169.979 213.133 170.341 213.587 170.78 213.958C170.852 214.018 170.926 214.077 171.002 214.133C172.309 211.671 175.437 210.866 178.218 210.652C191.534 209.598 204.541 215.799 217.897 215.331C216.955 212.072 215.599 208.94 214.831 205.641C211.432 190.995 219.909 175.049 214.712 160.943C213.674 158.12 211.94 155.344 209.207 154.107C208.075 153.65 206.891 153.337 205.682 153.173C202.307 152.563 195.589 149.954 192.326 151.001C191.122 151.39 190.647 152.523 189.649 153.208C188.132 154.178 186.121 154.534 184.864 155.811Z" fill="#6C63FF"/>
<path d="M369.793 204.208C365.777 202.487 358.18 203.542 353.783 203.415C347.74 203.273 341.355 203.915 336.396 207.38C330.368 211.6 327.595 219.346 327.643 226.712C327.69 234.079 330.162 241.182 332.808 248.059C334.281 251.936 335.834 255.782 336.349 259.866C336.349 259.866 283.662 266.118 280.481 268.683C277.301 271.248 275.879 276.379 278.318 279.55C280.758 282.722 356.869 285.907 366.889 283.784C367.728 283.806 368.542 283.493 369.151 282.914C369.759 282.336 370.114 281.54 370.137 280.7C371.15 274.785 371.966 268.862 372.512 262.891C372.801 259.814 373.011 256.737 373.225 253.653L375.501 220.927C375.755 218.625 375.723 216.299 375.407 214.005C374.813 210.89 372.971 205.609 369.793 204.208Z" fill="#FBBEBE"/>
<path d="M357.352 153.208C356.353 152.523 355.878 151.39 354.674 151.001C351.411 149.954 344.693 152.563 341.318 153.173C340.109 153.337 338.925 153.65 337.794 154.107C335.061 155.344 333.326 158.12 332.288 160.943C327.092 175.049 335.568 190.995 332.17 205.641C331.401 208.94 330.046 212.072 329.104 215.331C342.459 215.799 355.466 209.598 368.782 210.652C371.563 210.866 374.692 211.671 375.999 214.133C376.074 214.077 376.148 214.018 376.22 213.958C376.659 213.587 377.021 213.133 377.285 212.623C377.549 212.112 377.71 211.555 377.758 210.982C377.807 210.409 377.742 209.832 377.568 209.285C377.394 208.737 377.114 208.229 376.743 207.789C376.319 207.404 375.929 206.982 375.579 206.529C375.224 205.846 375.047 205.085 375.064 204.316C374.08 188.543 370.298 173.072 363.895 158.627C363.507 157.578 362.908 156.62 362.137 155.811C360.88 154.534 358.868 154.178 357.352 153.208Z" fill="#6C63FF"/>
<path d="M262.05 285.347C268.608 285.347 273.924 280.026 273.924 273.461C273.924 266.897 268.608 261.575 262.05 261.575C255.492 261.575 250.176 266.897 250.176 273.461C250.176 280.026 255.492 285.347 262.05 285.347Z" fill="#FBBEBE"/>
<path d="M288.343 285.347C294.9 285.347 300.217 280.026 300.217 273.461C300.217 266.897 294.9 261.575 288.343 261.575C281.785 261.575 276.469 266.897 276.469 273.461C276.469 280.026 281.785 285.347 288.343 285.347Z" fill="#FBBEBE"/>
<path d="M361.638 300.245H198.508C196.604 300.242 194.778 299.484 193.431 298.136C192.084 296.788 191.326 294.96 191.324 293.054V193.988C191.326 192.081 192.084 190.253 193.431 188.905C194.778 187.557 196.604 186.799 198.508 186.797H361.638C363.543 186.799 365.368 187.557 366.715 188.905C368.062 190.253 368.82 192.081 368.822 193.988V293.054C368.82 294.96 368.062 296.788 366.715 298.136C365.368 299.484 363.543 300.242 361.638 300.245Z" fill="#3F3D56"/>
<path d="M279.677 248.279C282.302 248.279 284.43 246.149 284.43 243.521C284.43 240.894 282.302 238.764 279.677 238.764C277.052 238.764 274.924 240.894 274.924 243.521C274.924 246.149 277.052 248.279 279.677 248.279Z" fill="white"/>
<path d="M547 280.263H0V297.089H32.3544V301H514.658V297.089H547V280.263Z" fill="#F1F1F1"/>
<path d="M234.624 78.2413C227.555 78.2413 221.824 72.039 221.824 64.3881V57.4615C221.824 49.8106 227.555 43.6084 234.624 43.6084V78.2413H234.624Z" fill="#6C63FF"/>
<path d="M316.318 43.6084C323.387 43.6084 329.118 49.8107 329.118 57.4615V64.3881C329.118 72.039 323.387 78.2412 316.318 78.2412V43.6084Z" fill="#6C63FF"/>
<path d="M323.027 58.5493H320.996C320.996 30.6741 300.043 7.99581 274.288 7.99581C248.533 7.99581 227.58 30.6741 227.58 58.5493H225.549C225.549 29.462 247.413 5.79785 274.288 5.79785C301.163 5.79786 323.027 29.462 323.027 58.5493Z" fill="#6C63FF"/>
</g>
<defs>
<clipPath id="clip0_562_358">
<rect width="547" height="301" fill="white"/>
</clipPath>
</defs>
</svg>
