<svg width="32" height="28" viewBox="0 0 32 28" fill="none" xmlns="http://www.w3.org/2000/svg">
<g clip-path="url(#clip0_816_25)">
<path d="M28.8524 14.5052C28.8566 17.9542 27.5235 21.2704 25.1334 23.7568C24.9893 23.9077 24.8413 24.0549 24.6894 24.1985C24.458 24.4186 24.2189 24.6302 23.972 24.8332C21.662 26.7364 18.7782 27.8058 15.7859 27.869C15.6862 27.8713 15.5861 27.8724 15.4857 27.8724C13.0992 27.8724 10.0976 26.5977 7.3737 24.8332C7.14834 24.6872 6.92499 24.5379 6.70363 24.3851C6.60017 24.3144 6.49721 24.2426 6.39475 24.1699C5.34417 23.4281 4.34696 22.6134 3.41047 21.7319C2.79732 21.1565 2.22235 20.5417 1.68921 19.8914C-0.403772 17.3097 -0.865409 14.9834 2.11849 14.5052C2.47177 14.4488 2.81465 14.3885 3.14711 14.3243C3.62869 14.2317 4.08957 14.1318 4.52976 14.0244C5.12271 13.8803 5.67978 13.7241 6.20099 13.5556C6.37631 13.4992 6.54763 13.4416 6.71492 13.3829C9.18828 12.5142 10.8437 11.3814 11.9705 10.1522C12.1616 9.94418 12.3378 9.73362 12.4991 9.52054C12.7459 9.19622 12.97 8.8553 13.1699 8.5002C13.4459 8.00681 13.6777 7.48999 13.8626 6.95577L13.8727 6.92642C14.7693 4.3402 14.4965 1.94134 15.4857 1.13846C19.7138 -2.29391 24.9776 2.59411 27.4483 8.35836C27.5729 8.64881 27.69 8.94102 27.7997 9.23498C27.849 9.36629 27.8966 9.49785 27.9423 9.62965C28.0627 9.97315 28.172 10.3175 28.27 10.6628C28.3077 10.7945 28.3435 10.926 28.3776 11.0575C28.4141 11.1993 28.4491 11.3408 28.4815 11.4822C28.7219 12.518 28.8524 13.5395 28.8524 14.5052Z" fill="#F2F2F2"/>
<path d="M15.7854 27.8694C15.6857 27.8717 15.5856 27.8728 15.4851 27.8728C13.0987 27.8728 10.0971 26.5981 7.37319 24.8336C7.14783 24.6876 6.92448 24.5383 6.70312 24.3855L6.89726 23.2041L12.7744 22.4238L15.7241 24.6793L15.7854 27.8694Z" fill="#2F2E41"/>
<path d="M16.0681 6.77441H15.2306C15.2047 6.77443 15.1798 6.78473 15.1615 6.80308C15.1431 6.82142 15.1328 6.84629 15.1328 6.87223V7.7101C15.1328 7.72292 15.1354 7.73562 15.1403 7.74746C15.1452 7.7593 15.1524 7.77006 15.1615 7.77911C15.1706 7.78816 15.1814 7.79533 15.1932 7.80021C15.2051 7.80509 15.2178 7.80758 15.2306 7.80755H16.0681C16.094 7.80755 16.1188 7.7973 16.1372 7.77904C16.1555 7.76077 16.1659 7.73598 16.1659 7.7101V6.87223C16.1659 6.84631 16.1555 6.82147 16.1372 6.80314C16.1189 6.78482 16.094 6.77449 16.0681 6.77441V6.77441Z" fill="white"/>
<path d="M16.0681 8.20215H15.2306C15.2047 8.20216 15.1798 8.21247 15.1615 8.23081C15.1431 8.24915 15.1328 8.27403 15.1328 8.29997V9.13784C15.1328 9.15066 15.1354 9.16336 15.1403 9.1752C15.1452 9.18704 15.1524 9.19779 15.1615 9.20685C15.1706 9.2159 15.1814 9.22307 15.1932 9.22795C15.2051 9.23283 15.2178 9.23532 15.2306 9.23528H16.0681C16.094 9.23529 16.1188 9.22504 16.1372 9.20678C16.1555 9.18851 16.1659 9.16372 16.1659 9.13784V8.29997C16.1659 8.27405 16.1555 8.24921 16.1372 8.23088C16.1189 8.21255 16.094 8.20222 16.0681 8.20215Z" fill="#E6E6E6"/>
<path d="M16.0681 9.62988H15.2306C15.2047 9.6299 15.1798 9.64021 15.1615 9.65855C15.1431 9.67689 15.1328 9.70177 15.1328 9.72771V10.5652C15.1328 10.5781 15.1353 10.5908 15.1402 10.6027C15.1451 10.6145 15.1523 10.6253 15.1614 10.6344C15.1705 10.6435 15.1813 10.6507 15.1932 10.6556C15.205 10.6605 15.2178 10.663 15.2306 10.663H16.0681C16.0941 10.663 16.1189 10.6527 16.1373 10.6344C16.1556 10.616 16.1659 10.5911 16.1659 10.5652V9.72771C16.1659 9.70179 16.1555 9.67695 16.1372 9.65862C16.1189 9.64029 16.094 9.62996 16.0681 9.62988V9.62988Z" fill="#E6E6E6"/>
<path d="M16.1644 11.1381C16.1603 11.1156 16.1484 11.0952 16.1308 11.0805C16.1132 11.0658 16.091 11.0577 16.0681 11.0576H15.2306C15.2047 11.0576 15.1798 11.0679 15.1615 11.0863C15.1431 11.1046 15.1328 11.1295 15.1328 11.1554V11.9929C15.1328 12.0058 15.1353 12.0185 15.1402 12.0304C15.1451 12.0423 15.1523 12.0531 15.1614 12.0622C15.1705 12.0712 15.1813 12.0785 15.1932 12.0834C15.205 12.0883 15.2178 12.0908 15.2306 12.0908H16.0681C16.0941 12.0907 16.1189 12.0804 16.1373 12.0621C16.1556 12.0437 16.1659 12.0189 16.1659 11.9929V11.1554C16.166 11.1496 16.1655 11.1438 16.1644 11.1381V11.1381Z" fill="#E6E6E6"/>
<path d="M16.1061 12.4929C16.0941 12.4879 16.0812 12.4853 16.0681 12.4854H15.2306C15.2178 12.4853 15.205 12.4878 15.1932 12.4927C15.1813 12.4977 15.1705 12.5049 15.1614 12.5139C15.1523 12.523 15.1451 12.5338 15.1402 12.5457C15.1353 12.5576 15.1328 12.5703 15.1328 12.5832V13.4207C15.1328 13.4335 15.1352 13.4463 15.1401 13.4582C15.145 13.4701 15.1522 13.4809 15.1613 13.49C15.1704 13.4991 15.1812 13.5063 15.1931 13.5112C15.205 13.5161 15.2178 13.5185 15.2306 13.5185H16.0681C16.0941 13.5185 16.1189 13.5082 16.1373 13.4898C16.1556 13.4715 16.1659 13.4466 16.1659 13.4207V12.5832C16.1659 12.5639 16.1602 12.5451 16.1496 12.5291C16.1389 12.513 16.1238 12.5004 16.1061 12.4929Z" fill="#E6E6E6"/>
<path d="M17.8279 6.77441H16.9904C16.9645 6.77443 16.9396 6.78473 16.9212 6.80308C16.9029 6.82142 16.8926 6.84629 16.8926 6.87223V7.7101C16.8926 7.72292 16.8951 7.73562 16.9001 7.74746C16.905 7.7593 16.9122 7.77006 16.9213 7.77911C16.9304 7.78816 16.9411 7.79533 16.953 7.80021C16.9649 7.80509 16.9776 7.80758 16.9904 7.80755H17.8279C17.8538 7.80755 17.8786 7.7973 17.8969 7.77904C17.9153 7.76077 17.9256 7.73598 17.9257 7.7101V6.87223C17.9256 6.84631 17.9153 6.82147 17.897 6.80314C17.8786 6.78482 17.8538 6.77449 17.8279 6.77441V6.77441Z" fill="#E6E6E6"/>
<path d="M17.8279 8.20215H16.9904C16.9645 8.20216 16.9396 8.21247 16.9212 8.23081C16.9029 8.24915 16.8926 8.27403 16.8926 8.29997V9.13784C16.8926 9.15066 16.8951 9.16336 16.9001 9.1752C16.905 9.18704 16.9122 9.19779 16.9213 9.20685C16.9304 9.2159 16.9411 9.22307 16.953 9.22795C16.9649 9.23283 16.9776 9.23532 16.9904 9.23528H17.8279C17.8538 9.23529 17.8786 9.22504 17.8969 9.20678C17.9153 9.18851 17.9256 9.16372 17.9257 9.13784V8.29997C17.9256 8.27405 17.9153 8.24921 17.897 8.23088C17.8786 8.21255 17.8538 8.20222 17.8279 8.20215Z" fill="#6C63FF"/>
<path d="M17.8279 9.62988H16.9904C16.9645 9.6299 16.9396 9.64021 16.9212 9.65855C16.9029 9.67689 16.8926 9.70177 16.8926 9.72771V10.5652C16.8926 10.5781 16.8951 10.5908 16.9 10.6027C16.9049 10.6145 16.9121 10.6253 16.9212 10.6344C16.9303 10.6435 16.9411 10.6507 16.9529 10.6556C16.9648 10.6605 16.9775 10.663 16.9904 10.663H17.8279C17.8538 10.663 17.8787 10.6527 17.897 10.6344C17.9154 10.616 17.9257 10.5911 17.9257 10.5652V9.72771C17.9256 9.70179 17.9153 9.67695 17.897 9.65862C17.8786 9.64029 17.8538 9.62996 17.8279 9.62988V9.62988Z" fill="#6C63FF"/>
<path d="M17.8279 11.0576H16.9904C16.9699 11.0576 16.9499 11.0641 16.9333 11.0761C16.9167 11.0882 16.9043 11.1051 16.8978 11.1246C16.8944 11.1345 16.8926 11.1449 16.8926 11.1554V11.9929C16.8926 12.0058 16.8951 12.0185 16.9 12.0304C16.9049 12.0423 16.9121 12.0531 16.9212 12.0622C16.9303 12.0712 16.941 12.0785 16.9529 12.0834C16.9648 12.0883 16.9775 12.0908 16.9904 12.0908H17.8279C17.8538 12.0907 17.8787 12.0804 17.897 12.0621C17.9154 12.0437 17.9257 12.0189 17.9257 11.9929V11.1554C17.9256 11.1295 17.9153 11.1047 17.897 11.0864C17.8786 11.068 17.8538 11.0577 17.8279 11.0576V11.0576Z" fill="#6C63FF"/>
<path d="M17.8279 12.4854H16.9904C16.9775 12.4853 16.9648 12.4878 16.9529 12.4927C16.9411 12.4977 16.9303 12.5049 16.9212 12.5139C16.9121 12.523 16.9049 12.5338 16.9 12.5457C16.8951 12.5576 16.8926 12.5703 16.8926 12.5832V13.4207C16.8926 13.4335 16.8951 13.4463 16.9 13.4581C16.9049 13.47 16.9121 13.4808 16.9212 13.4899C16.9303 13.499 16.9411 13.5062 16.9529 13.5111C16.9648 13.516 16.9775 13.5185 16.9904 13.5185H17.8279C17.8538 13.5185 17.8787 13.5082 17.897 13.4898C17.9154 13.4715 17.9257 13.4466 17.9257 13.4207V12.5832C17.9257 12.5572 17.9154 12.5324 17.897 12.514C17.8787 12.4957 17.8538 12.4854 17.8279 12.4854V12.4854Z" fill="#E6E6E6"/>
<path d="M19.5877 6.77441H18.7502C18.7242 6.77443 18.6993 6.78473 18.681 6.80308C18.6627 6.82142 18.6524 6.84629 18.6523 6.87223V7.7101C18.6524 7.72292 18.6549 7.73562 18.6598 7.74746C18.6647 7.7593 18.672 7.77006 18.681 7.77911C18.6901 7.78816 18.7009 7.79533 18.7128 7.80021C18.7246 7.80509 18.7373 7.80758 18.7502 7.80755H19.5877C19.6135 7.80755 19.6384 7.7973 19.6567 7.77904C19.675 7.76077 19.6854 7.73598 19.6855 7.7101V6.87223C19.6854 6.84631 19.6751 6.82147 19.6567 6.80314C19.6384 6.78482 19.6136 6.77449 19.5877 6.77441V6.77441Z" fill="#6C63FF"/>
<path d="M19.5877 8.20215H18.7502C18.7242 8.20216 18.6993 8.21247 18.681 8.23081C18.6627 8.24915 18.6524 8.27403 18.6523 8.29997V9.13784C18.6524 9.15066 18.6549 9.16336 18.6598 9.1752C18.6647 9.18704 18.672 9.19779 18.681 9.20685C18.6901 9.2159 18.7009 9.22307 18.7128 9.22795C18.7246 9.23283 18.7373 9.23532 18.7502 9.23528H19.5877C19.6135 9.23529 19.6384 9.22504 19.6567 9.20678C19.675 9.18851 19.6854 9.16372 19.6855 9.13784V8.29997C19.6854 8.27405 19.6751 8.24921 19.6567 8.23088C19.6384 8.21255 19.6136 8.20222 19.5877 8.20215Z" fill="#6C63FF"/>
<path d="M19.5877 9.62988H18.7502C18.7242 9.6299 18.6993 9.64021 18.681 9.65855C18.6627 9.67689 18.6524 9.70177 18.6523 9.72771V10.5652C18.6523 10.5781 18.6548 10.5908 18.6597 10.6027C18.6646 10.6145 18.6718 10.6253 18.6809 10.6344C18.69 10.6435 18.7008 10.6507 18.7127 10.6556C18.7246 10.6605 18.7373 10.663 18.7502 10.663H19.5877C19.6136 10.663 19.6385 10.6527 19.6568 10.6344C19.6752 10.616 19.6855 10.5911 19.6855 10.5652V9.72771C19.6854 9.70179 19.6751 9.67695 19.6567 9.65862C19.6384 9.64029 19.6136 9.62996 19.5877 9.62988V9.62988Z" fill="#E6E6E6"/>
<path d="M19.5877 11.0576H18.7502C18.7242 11.0576 18.6993 11.0679 18.681 11.0863C18.6627 11.1046 18.6524 11.1295 18.6523 11.1554V11.9929C18.6523 12.0058 18.6548 12.0185 18.6597 12.0304C18.6646 12.0423 18.6718 12.0531 18.6809 12.0622C18.69 12.0712 18.7008 12.0785 18.7127 12.0834C18.7246 12.0883 18.7373 12.0908 18.7502 12.0908H19.5877C19.6136 12.0907 19.6385 12.0804 19.6568 12.0621C19.6752 12.0437 19.6855 12.0189 19.6855 11.9929V11.1554C19.6854 11.1295 19.6751 11.1047 19.6567 11.0864C19.6384 11.068 19.6136 11.0577 19.5877 11.0576V11.0576Z" fill="#6C63FF"/>
<path d="M19.5877 12.4854H18.7502C18.7373 12.4853 18.7246 12.4878 18.7127 12.4927C18.7008 12.4977 18.69 12.5049 18.6809 12.5139C18.6718 12.523 18.6646 12.5338 18.6597 12.5457C18.6548 12.5576 18.6523 12.5703 18.6523 12.5832V13.4207C18.6523 13.4335 18.6548 13.4463 18.6597 13.4581C18.6646 13.47 18.6718 13.4808 18.6809 13.4899C18.69 13.499 18.7008 13.5062 18.7127 13.5111C18.7246 13.516 18.7373 13.5185 18.7502 13.5185H19.5877C19.6136 13.5185 19.6385 13.5082 19.6568 13.4898C19.6752 13.4715 19.6855 13.4466 19.6855 13.4207V12.5832C19.6855 12.5572 19.6752 12.5324 19.6568 12.514C19.6385 12.4957 19.6136 12.4854 19.5877 12.4854V12.4854Z" fill="#6C63FF"/>
<path d="M21.3474 6.77441H20.5099C20.484 6.77443 20.4591 6.78473 20.4408 6.80308C20.4224 6.82142 20.4121 6.84629 20.4121 6.87223V7.7101C20.4121 7.72292 20.4147 7.73562 20.4196 7.74746C20.4245 7.7593 20.4317 7.77006 20.4408 7.77911C20.4499 7.78816 20.4607 7.79533 20.4725 7.80021C20.4844 7.80509 20.4971 7.80758 20.5099 7.80755H21.3474C21.3733 7.80755 21.3981 7.7973 21.4165 7.77904C21.4348 7.76077 21.4452 7.73598 21.4452 7.7101V6.87223C21.4452 6.84631 21.4348 6.82147 21.4165 6.80314C21.3982 6.78482 21.3733 6.77449 21.3474 6.77441V6.77441Z" fill="#6C63FF"/>
<path d="M21.3474 8.20215H20.5099C20.484 8.20216 20.4591 8.21247 20.4408 8.23081C20.4224 8.24915 20.4121 8.27403 20.4121 8.29997V9.13784C20.4121 9.15066 20.4147 9.16336 20.4196 9.1752C20.4245 9.18704 20.4317 9.19779 20.4408 9.20685C20.4499 9.2159 20.4607 9.22307 20.4725 9.22795C20.4844 9.23283 20.4971 9.23532 20.5099 9.23528H21.3474C21.3733 9.23529 21.3981 9.22504 21.4165 9.20678C21.4348 9.18851 21.4452 9.16372 21.4452 9.13784V8.29997C21.4452 8.27405 21.4348 8.24921 21.4165 8.23088C21.3982 8.21255 21.3733 8.20222 21.3474 8.20215V8.20215Z" fill="white"/>
<path d="M21.3474 9.62988H20.5099C20.484 9.6299 20.4591 9.64021 20.4408 9.65855C20.4224 9.67689 20.4121 9.70177 20.4121 9.72771V10.5652C20.4121 10.5781 20.4146 10.5908 20.4195 10.6027C20.4244 10.6145 20.4316 10.6253 20.4407 10.6344C20.4498 10.6435 20.4606 10.6507 20.4725 10.6556C20.4843 10.6605 20.4971 10.663 20.5099 10.663H21.3474C21.3734 10.663 21.3982 10.6527 21.4166 10.6344C21.4349 10.616 21.4452 10.5911 21.4452 10.5652V9.72771C21.4452 9.70179 21.4348 9.67695 21.4165 9.65862C21.3982 9.64029 21.3733 9.62996 21.3474 9.62988V9.62988Z" fill="white"/>
<path d="M21.3474 11.0576H20.5099C20.484 11.0576 20.4591 11.0679 20.4408 11.0863C20.4224 11.1046 20.4121 11.1295 20.4121 11.1554V11.9929C20.4121 12.0058 20.4146 12.0185 20.4195 12.0304C20.4244 12.0423 20.4316 12.0531 20.4407 12.0622C20.4498 12.0713 20.4606 12.0785 20.4725 12.0834C20.4843 12.0883 20.4971 12.0908 20.5099 12.0908H21.3474C21.3734 12.0907 21.3982 12.0804 21.4166 12.0621C21.4349 12.0437 21.4452 12.0189 21.4452 11.9929V11.1554C21.4452 11.1295 21.4348 11.1047 21.4165 11.0864C21.3982 11.068 21.3733 11.0577 21.3474 11.0576V11.0576Z" fill="#E6E6E6"/>
<path d="M21.3474 12.4854H20.5099C20.4971 12.4853 20.4843 12.4878 20.4725 12.4927C20.4606 12.4977 20.4498 12.5049 20.4407 12.5139C20.4316 12.523 20.4244 12.5338 20.4195 12.5457C20.4146 12.5576 20.4121 12.5703 20.4121 12.5832V13.4207C20.4121 13.4335 20.4146 13.4463 20.4195 13.4581C20.4244 13.47 20.4316 13.4808 20.4407 13.4899C20.4498 13.499 20.4606 13.5062 20.4725 13.5111C20.4843 13.516 20.4971 13.5185 20.5099 13.5185H21.3474C21.3734 13.5185 21.3982 13.5082 21.4166 13.4898C21.4349 13.4715 21.4452 13.4466 21.4452 13.4207V12.5832C21.4452 12.5572 21.4349 12.5324 21.4166 12.514C21.3982 12.4957 21.3734 12.4854 21.3474 12.4854V12.4854Z" fill="#6C63FF"/>
<path d="M23.1052 6.77441H22.2674C22.2415 6.7745 22.2167 6.78485 22.1984 6.80318C22.1802 6.82152 22.1699 6.84635 22.1699 6.87223V7.7101C22.1699 7.73594 22.1802 7.76072 22.1985 7.779C22.2167 7.79727 22.2415 7.80754 22.2674 7.80755H23.1052C23.1311 7.80755 23.1559 7.7973 23.1743 7.77904C23.1926 7.76077 23.203 7.73598 23.2031 7.7101V6.87223C23.203 6.84631 23.1927 6.82147 23.1743 6.80314C23.156 6.78482 23.1312 6.77449 23.1052 6.77441Z" fill="white"/>
<path d="M23.1052 8.20215H22.2674C22.2415 8.20224 22.2167 8.21259 22.1984 8.23092C22.1802 8.24926 22.1699 8.27409 22.1699 8.29997V9.13784C22.1699 9.16368 22.1802 9.18846 22.1985 9.20674C22.2167 9.22501 22.2415 9.23528 22.2674 9.23528H23.1052C23.1311 9.23529 23.1559 9.22504 23.1743 9.20678C23.1926 9.18851 23.203 9.16372 23.2031 9.13784V8.29997C23.203 8.27405 23.1927 8.24921 23.1743 8.23088C23.156 8.21255 23.1312 8.20222 23.1052 8.20215V8.20215Z" fill="white"/>
<path d="M23.1052 9.62988H22.2674C22.2415 9.62997 22.2167 9.64032 22.1984 9.65866C22.1802 9.677 22.1699 9.70183 22.1699 9.72771V10.5652C22.1699 10.578 22.1724 10.5907 22.1773 10.6026C22.1821 10.6144 22.1893 10.6252 22.1984 10.6343C22.2074 10.6434 22.2182 10.6506 22.23 10.6555C22.2418 10.6605 22.2545 10.663 22.2674 10.663H23.1052C23.1312 10.663 23.1561 10.6527 23.1744 10.6344C23.1927 10.616 23.203 10.5911 23.2031 10.5652V9.72771C23.203 9.70179 23.1927 9.67695 23.1743 9.65862C23.156 9.64029 23.1312 9.62996 23.1052 9.62988V9.62988Z" fill="white"/>
<path d="M23.1052 11.0576H22.2674C22.2415 11.0577 22.2167 11.0681 22.1984 11.0864C22.1802 11.1047 22.1699 11.1296 22.1699 11.1554V11.9929C22.1699 12.0058 22.1724 12.0185 22.1773 12.0303C22.1821 12.0422 22.1893 12.053 22.1984 12.0621C22.2074 12.0711 22.2182 12.0783 22.23 12.0833C22.2418 12.0882 22.2545 12.0907 22.2674 12.0908H23.1052C23.1312 12.0907 23.1561 12.0804 23.1744 12.0621C23.1927 12.0437 23.203 12.0189 23.2031 11.9929V11.1554C23.203 11.1295 23.1927 11.1047 23.1743 11.0864C23.156 11.068 23.1312 11.0577 23.1052 11.0576V11.0576Z" fill="#6C63FF"/>
<path d="M23.1052 12.4854H22.2674C22.2545 12.4854 22.2418 12.4879 22.23 12.4928C22.2182 12.4978 22.2074 12.505 22.1984 12.5141C22.1893 12.5231 22.1821 12.5339 22.1773 12.5458C22.1724 12.5576 22.1699 12.5703 22.1699 12.5832V13.4207C22.1699 13.4335 22.1724 13.4462 22.1773 13.4581C22.1821 13.4699 22.1893 13.4807 22.1984 13.4898C22.2074 13.4989 22.2182 13.5061 22.23 13.511C22.2418 13.5159 22.2545 13.5185 22.2674 13.5185H23.1052C23.1312 13.5185 23.1561 13.5082 23.1744 13.4898C23.1927 13.4715 23.203 13.4466 23.2031 13.4207V12.5832C23.203 12.5572 23.1927 12.5324 23.1744 12.514C23.1561 12.4957 23.1312 12.4854 23.1052 12.4854V12.4854Z" fill="#E6E6E6"/>
<path d="M24.865 6.77441H24.0271C24.0013 6.7745 23.9765 6.78485 23.9582 6.80318C23.9399 6.82152 23.9297 6.84635 23.9297 6.87223V7.7101C23.9297 7.73594 23.94 7.76072 23.9582 7.779C23.9765 7.79727 24.0013 7.80754 24.0271 7.80755H24.865C24.8909 7.80755 24.9157 7.7973 24.934 7.77904C24.9524 7.76077 24.9627 7.73598 24.9628 7.7101V6.87223C24.9627 6.84631 24.9524 6.82147 24.9341 6.80315C24.9158 6.78482 24.8909 6.77449 24.865 6.77441V6.77441Z" fill="white"/>
<path d="M24.865 8.20215H24.0271C24.0013 8.20224 23.9765 8.21259 23.9582 8.23092C23.9399 8.24926 23.9297 8.27409 23.9297 8.29997V9.13784C23.9297 9.16368 23.94 9.18846 23.9582 9.20674C23.9765 9.22501 24.0013 9.23528 24.0271 9.23528H24.865C24.8909 9.23529 24.9157 9.22504 24.934 9.20678C24.9524 9.18851 24.9627 9.16372 24.9628 9.13784V8.29997C24.9628 8.27405 24.9524 8.24921 24.9341 8.23088C24.9158 8.21255 24.8909 8.20222 24.865 8.20215V8.20215Z" fill="white"/>
<path d="M24.865 9.62988H24.0271C24.0013 9.62997 23.9765 9.64032 23.9582 9.65866C23.9399 9.677 23.9297 9.70183 23.9297 9.72771V10.5652C23.9297 10.578 23.9321 10.5907 23.937 10.6026C23.9419 10.6144 23.9491 10.6252 23.9581 10.6343C23.9672 10.6434 23.9779 10.6506 23.9898 10.6555C24.0016 10.6605 24.0143 10.663 24.0271 10.663H24.865C24.8909 10.663 24.9158 10.6527 24.9342 10.6344C24.9525 10.616 24.9628 10.5911 24.9628 10.5652V9.72771C24.9628 9.70179 24.9524 9.67695 24.9341 9.65862C24.9158 9.64029 24.8909 9.62996 24.865 9.62988V9.62988Z" fill="#6C63FF"/>
<path d="M24.865 11.0576H24.0271C24.0013 11.0577 23.9765 11.0681 23.9582 11.0864C23.9399 11.1047 23.9297 11.1296 23.9297 11.1554V11.9929C23.9297 12.0058 23.9321 12.0185 23.937 12.0303C23.9419 12.0422 23.9491 12.053 23.9581 12.0621C23.9672 12.0711 23.9779 12.0783 23.9898 12.0833C24.0016 12.0882 24.0143 12.0907 24.0271 12.0908H24.865C24.8909 12.0907 24.9158 12.0804 24.9342 12.0621C24.9525 12.0437 24.9628 12.0189 24.9628 11.9929V11.1554C24.9628 11.1295 24.9524 11.1047 24.9341 11.0864C24.9158 11.068 24.8909 11.0577 24.865 11.0576V11.0576Z" fill="#E6E6E6"/>
<path d="M24.865 12.4854H24.0271C24.0143 12.4854 24.0016 12.4879 23.9898 12.4928C23.9779 12.4978 23.9672 12.505 23.9581 12.5141C23.9491 12.5231 23.9419 12.5339 23.937 12.5458C23.9321 12.5576 23.9297 12.5703 23.9297 12.5832V13.4207C23.9297 13.4335 23.9321 13.4462 23.937 13.4581C23.9419 13.4699 23.9491 13.4807 23.9581 13.4898C23.9672 13.4989 23.9779 13.5061 23.9898 13.511C24.0016 13.5159 24.0143 13.5185 24.0271 13.5185H24.865C24.8909 13.5185 24.9158 13.5082 24.9342 13.4898C24.9525 13.4715 24.9628 13.4466 24.9628 13.4207V12.5832C24.9628 12.5572 24.9525 12.5324 24.9342 12.514C24.9158 12.4957 24.8909 12.4854 24.865 12.4854Z" fill="white"/>
<path d="M26.6248 6.77441H25.7869C25.761 6.7745 25.7362 6.78485 25.718 6.80318C25.6997 6.82152 25.6894 6.84635 25.6895 6.87223V7.7101C25.6895 7.73594 25.6997 7.76072 25.718 7.779C25.7363 7.79727 25.7611 7.80754 25.7869 7.80755H26.6248C26.6506 7.80755 26.6755 7.7973 26.6938 7.77904C26.7122 7.76077 26.7225 7.73598 26.7226 7.7101V6.87223C26.7225 6.84631 26.7122 6.82147 26.6939 6.80315C26.6755 6.78482 26.6507 6.77449 26.6248 6.77441V6.77441Z" fill="#6C63FF"/>
<path d="M26.6248 8.20215H25.7869C25.761 8.20224 25.7362 8.21259 25.718 8.23092C25.6997 8.24926 25.6894 8.27409 25.6895 8.29997V9.13784C25.6895 9.16368 25.6997 9.18846 25.718 9.20674C25.7363 9.22501 25.7611 9.23528 25.7869 9.23528H26.6248C26.6506 9.23529 26.6755 9.22504 26.6938 9.20678C26.7122 9.18851 26.7225 9.16372 26.7226 9.13784V8.29997C26.7225 8.27405 26.7122 8.24921 26.6939 8.23088C26.6755 8.21255 26.6507 8.20222 26.6248 8.20215Z" fill="#6C63FF"/>
<path d="M26.6248 9.62988H25.7869C25.761 9.62997 25.7362 9.64032 25.718 9.65866C25.6997 9.677 25.6894 9.70183 25.6895 9.72771V10.5652C25.6894 10.578 25.6919 10.5907 25.6968 10.6026C25.7017 10.6144 25.7088 10.6252 25.7179 10.6343C25.7269 10.6434 25.7377 10.6506 25.7495 10.6555C25.7614 10.6605 25.7741 10.663 25.7869 10.663H26.6248C26.6507 10.663 26.6756 10.6527 26.6939 10.6344C26.7123 10.616 26.7226 10.5911 26.7226 10.5652V9.72771C26.7225 9.70179 26.7122 9.67695 26.6939 9.65862C26.6755 9.64029 26.6507 9.62996 26.6248 9.62988V9.62988Z" fill="#E6E6E6"/>
<path d="M26.6248 11.0576H25.7869C25.761 11.0577 25.7362 11.0681 25.718 11.0864C25.6997 11.1047 25.6894 11.1296 25.6895 11.1554V11.9929C25.6894 12.0058 25.6919 12.0185 25.6968 12.0303C25.7017 12.0422 25.7088 12.053 25.7179 12.0621C25.7269 12.0711 25.7377 12.0783 25.7495 12.0833C25.7614 12.0882 25.7741 12.0907 25.7869 12.0908H26.6248C26.6507 12.0907 26.6756 12.0804 26.6939 12.0621C26.7123 12.0437 26.7226 12.0189 26.7226 11.9929V11.1554C26.7225 11.1295 26.7122 11.1047 26.6939 11.0864C26.6755 11.068 26.6507 11.0577 26.6248 11.0576V11.0576Z" fill="white"/>
<path d="M26.6248 12.4854H25.7869C25.7741 12.4854 25.7614 12.4879 25.7495 12.4928C25.7377 12.4978 25.7269 12.505 25.7179 12.5141C25.7088 12.5231 25.7017 12.5339 25.6968 12.5458C25.6919 12.5576 25.6894 12.5703 25.6895 12.5832V13.4207C25.6894 13.4335 25.6919 13.4462 25.6968 13.4581C25.7017 13.4699 25.7088 13.4807 25.7179 13.4898C25.7269 13.4989 25.7377 13.5061 25.7495 13.511C25.7614 13.5159 25.7741 13.5185 25.7869 13.5185H26.6248C26.6507 13.5185 26.6756 13.5082 26.6939 13.4898C26.7123 13.4715 26.7226 13.4466 26.7226 13.4207V12.5832C26.7226 12.5572 26.7123 12.5324 26.6939 12.514C26.6756 12.4957 26.6507 12.4854 26.6248 12.4854Z" fill="#6C63FF"/>
<path d="M28.3845 6.77441H27.5467C27.5208 6.7745 27.496 6.78485 27.4777 6.80318C27.4595 6.82152 27.4492 6.84635 27.4492 6.87223V7.7101C27.4492 7.73594 27.4595 7.76072 27.4778 7.779C27.496 7.79727 27.5208 7.80754 27.5467 7.80755H28.3845C28.4104 7.80755 28.4352 7.7973 28.4536 7.77904C28.4719 7.76077 28.4823 7.73598 28.4824 7.7101V6.87223C28.4823 6.84631 28.4719 6.82147 28.4536 6.80315C28.4353 6.78482 28.4105 6.77449 28.3845 6.77441Z" fill="#6C63FF"/>
<path d="M28.3845 8.20215H27.5467C27.5208 8.20224 27.496 8.21259 27.4777 8.23092C27.4595 8.24926 27.4492 8.27409 27.4492 8.29997V9.13784C27.4492 9.16368 27.4595 9.18846 27.4778 9.20674C27.496 9.22501 27.5208 9.23528 27.5467 9.23528H28.3845C28.4104 9.23529 28.4352 9.22504 28.4536 9.20678C28.4719 9.18851 28.4823 9.16372 28.4824 9.13784V8.29997C28.4823 8.27405 28.4719 8.24921 28.4536 8.23088C28.4353 8.21255 28.4105 8.20222 28.3845 8.20215V8.20215Z" fill="#6C63FF"/>
<path d="M28.3845 9.62988H27.5467C27.5208 9.62997 27.496 9.64032 27.4777 9.65866C27.4595 9.677 27.4492 9.70183 27.4492 9.72771V10.5652C27.4492 10.578 27.4517 10.5907 27.4566 10.6026C27.4614 10.6144 27.4686 10.6252 27.4777 10.6343C27.4867 10.6434 27.4975 10.6506 27.5093 10.6555C27.5211 10.6605 27.5338 10.663 27.5467 10.663H28.3845C28.4105 10.663 28.4353 10.6527 28.4537 10.6344C28.472 10.616 28.4823 10.5911 28.4824 10.5652V9.72771C28.4823 9.70179 28.4719 9.67695 28.4536 9.65862C28.4353 9.64029 28.4105 9.62996 28.3845 9.62988Z" fill="#E6E6E6"/>
<path d="M28.3845 11.0576H27.5467C27.5208 11.0577 27.496 11.0681 27.4777 11.0864C27.4595 11.1047 27.4492 11.1296 27.4492 11.1554V11.9929C27.4492 12.0058 27.4517 12.0185 27.4566 12.0303C27.4614 12.0422 27.4686 12.053 27.4777 12.0621C27.4867 12.0711 27.4975 12.0783 27.5093 12.0833C27.5211 12.0882 27.5338 12.0907 27.5467 12.0908H28.3845C28.4105 12.0907 28.4353 12.0804 28.4537 12.0621C28.472 12.0437 28.4823 12.0189 28.4824 11.9929V11.1554C28.4823 11.1295 28.4719 11.1047 28.4536 11.0864C28.4353 11.068 28.4105 11.0577 28.3845 11.0576V11.0576Z" fill="#6C63FF"/>
<path d="M28.3845 12.4854H27.5467C27.5338 12.4854 27.5211 12.4879 27.5093 12.4928C27.4975 12.4978 27.4867 12.505 27.4777 12.5141C27.4686 12.5231 27.4614 12.5339 27.4566 12.5458C27.4517 12.5576 27.4492 12.5703 27.4492 12.5832V13.4207C27.4492 13.4335 27.4517 13.4462 27.4566 13.4581C27.4614 13.4699 27.4686 13.4807 27.4777 13.4898C27.4867 13.4989 27.4975 13.5061 27.5093 13.511C27.5211 13.5159 27.5338 13.5185 27.5467 13.5185H28.3845C28.4105 13.5185 28.4353 13.5082 28.4537 13.4898C28.472 13.4715 28.4823 13.4466 28.4824 13.4207V12.5832C28.4823 12.5572 28.472 12.5324 28.4537 12.514C28.4353 12.4957 28.4105 12.4854 28.3845 12.4854V12.4854Z" fill="#6C63FF"/>
<path d="M30.1423 6.77441H29.3045C29.2786 6.7745 29.2538 6.78485 29.2355 6.80318C29.2173 6.82152 29.207 6.84635 29.207 6.87223V7.7101C29.207 7.73594 29.2173 7.76072 29.2356 7.779C29.2539 7.79727 29.2786 7.80754 29.3045 7.80755H30.1423C30.1682 7.80755 30.1931 7.7973 30.2114 7.77904C30.2297 7.76077 30.2401 7.73598 30.2402 7.7101V6.87223C30.2401 6.84631 30.2298 6.82147 30.2114 6.80315C30.1931 6.78482 30.1683 6.77449 30.1423 6.77441V6.77441Z" fill="#E6E6E6"/>
<path d="M30.1423 8.20215H29.3045C29.2786 8.20224 29.2538 8.21259 29.2355 8.23092C29.2173 8.24926 29.207 8.27409 29.207 8.29997V9.13784C29.207 9.16368 29.2173 9.18846 29.2356 9.20674C29.2539 9.22501 29.2786 9.23528 29.3045 9.23528H30.1423C30.1682 9.23529 30.1931 9.22504 30.2114 9.20678C30.2297 9.18851 30.2401 9.16372 30.2402 9.13784V8.29997C30.2401 8.27405 30.2298 8.24921 30.2114 8.23088C30.1931 8.21255 30.1683 8.20222 30.1423 8.20215V8.20215Z" fill="#6C63FF"/>
<path d="M30.1423 9.62988H29.3045C29.2786 9.62997 29.2538 9.64032 29.2355 9.65866C29.2173 9.677 29.207 9.70183 29.207 9.72771V10.5652C29.207 10.578 29.2095 10.5907 29.2144 10.6026C29.2192 10.6144 29.2264 10.6252 29.2355 10.6343C29.2445 10.6434 29.2553 10.6506 29.2671 10.6555C29.279 10.6605 29.2917 10.663 29.3045 10.663H30.1423C30.1683 10.663 30.1932 10.6527 30.2115 10.6344C30.2298 10.616 30.2402 10.5911 30.2402 10.5652V9.72771C30.2401 9.70179 30.2298 9.67695 30.2114 9.65862C30.1931 9.64029 30.1683 9.62996 30.1423 9.62988V9.62988Z" fill="#6C63FF"/>
<path d="M30.1423 11.0576H29.3045C29.2786 11.0577 29.2538 11.0681 29.2355 11.0864C29.2173 11.1047 29.207 11.1296 29.207 11.1554V11.9929C29.207 12.0058 29.2095 12.0185 29.2144 12.0303C29.2192 12.0422 29.2264 12.053 29.2355 12.0621C29.2445 12.0711 29.2553 12.0783 29.2671 12.0833C29.279 12.0882 29.2917 12.0907 29.3045 12.0908H30.1423C30.1683 12.0907 30.1932 12.0804 30.2115 12.0621C30.2298 12.0437 30.2402 12.0189 30.2402 11.9929V11.1554C30.2401 11.1295 30.2298 11.1047 30.2114 11.0864C30.1931 11.068 30.1683 11.0577 30.1423 11.0576V11.0576Z" fill="#6C63FF"/>
<path d="M30.1423 12.4854H29.3045C29.2917 12.4854 29.279 12.4879 29.2671 12.4928C29.2553 12.4978 29.2445 12.505 29.2355 12.5141C29.2264 12.5231 29.2192 12.5339 29.2144 12.5458C29.2095 12.5576 29.207 12.5703 29.207 12.5832V13.4207C29.207 13.4335 29.2095 13.4462 29.2144 13.4581C29.2192 13.4699 29.2264 13.4807 29.2355 13.4898C29.2445 13.4989 29.2553 13.5061 29.2671 13.511C29.279 13.5159 29.2916 13.5185 29.3045 13.5185H30.1423C30.1683 13.5185 30.1932 13.5082 30.2115 13.4898C30.2298 13.4715 30.2402 13.4466 30.2402 13.4207V12.5832C30.2402 12.5572 30.2298 12.5324 30.2115 12.514C30.1932 12.4957 30.1683 12.4854 30.1423 12.4854V12.4854Z" fill="#E6E6E6"/>
<path d="M31.9021 6.77441H31.0642C31.0384 6.7745 31.0136 6.78485 30.9953 6.80318C30.977 6.82152 30.9668 6.84635 30.9668 6.87223V7.7101C30.9668 7.73594 30.9771 7.76072 30.9953 7.779C31.0136 7.79727 31.0384 7.80754 31.0642 7.80755H31.9021C31.928 7.80755 31.9528 7.7973 31.9712 7.77904C31.9895 7.76077 31.9998 7.73598 31.9999 7.7101V6.87223C31.9999 6.84631 31.9895 6.82147 31.9712 6.80315C31.9529 6.78482 31.928 6.77449 31.9021 6.77441V6.77441Z" fill="#E6E6E6"/>
<path d="M31.9021 8.20215H31.0642C31.0384 8.20224 31.0136 8.21259 30.9953 8.23092C30.977 8.24926 30.9668 8.27409 30.9668 8.29997V9.13784C30.9668 9.16368 30.9771 9.18846 30.9953 9.20674C31.0136 9.22501 31.0384 9.23528 31.0642 9.23528H31.9021C31.928 9.23529 31.9528 9.22504 31.9712 9.20678C31.9895 9.18851 31.9998 9.16372 31.9999 9.13784V8.29997C31.9999 8.27405 31.9895 8.24921 31.9712 8.23088C31.9529 8.21255 31.928 8.20222 31.9021 8.20215V8.20215Z" fill="#E6E6E6"/>
<path d="M31.9021 9.62988H31.0642C31.0384 9.62997 31.0136 9.64032 30.9953 9.65866C30.977 9.67699 30.9668 9.70182 30.9668 9.72771V10.5652C30.9668 10.578 30.9693 10.5907 30.9741 10.6026C30.979 10.6144 30.9862 10.6252 30.9952 10.6343C31.0043 10.6434 31.015 10.6506 31.0269 10.6555C31.0387 10.6605 31.0514 10.663 31.0642 10.663H31.9021C31.9281 10.663 31.9529 10.6527 31.9713 10.6344C31.9896 10.616 31.9999 10.5911 31.9999 10.5652V9.72771C31.9999 9.70179 31.9895 9.67695 31.9712 9.65862C31.9529 9.64029 31.928 9.62996 31.9021 9.62988V9.62988Z" fill="#6C63FF"/>
<path d="M31.9021 11.0576H31.0642C31.0384 11.0577 31.0136 11.0681 30.9953 11.0864C30.977 11.1047 30.9668 11.1296 30.9668 11.1554V11.9929C30.9668 12.0058 30.9693 12.0185 30.9741 12.0303C30.979 12.0422 30.9862 12.053 30.9952 12.0621C31.0043 12.0711 31.015 12.0783 31.0269 12.0833C31.0387 12.0882 31.0514 12.0907 31.0642 12.0908H31.9021C31.9281 12.0907 31.9529 12.0804 31.9713 12.0621C31.9896 12.0437 31.9999 12.0189 31.9999 11.9929V11.1554C31.9999 11.1295 31.9895 11.1047 31.9712 11.0864C31.9529 11.068 31.928 11.0577 31.9021 11.0576V11.0576Z" fill="#E6E6E6"/>
<path d="M31.9021 12.4854H31.0642C31.0514 12.4854 31.0387 12.4879 31.0269 12.4928C31.015 12.4978 31.0043 12.505 30.9952 12.5141C30.9862 12.5231 30.979 12.5339 30.9741 12.5458C30.9693 12.5576 30.9668 12.5703 30.9668 12.5832V13.4207C30.9668 13.4335 30.9693 13.4462 30.9741 13.4581C30.979 13.4699 30.9862 13.4807 30.9952 13.4898C31.0043 13.4989 31.015 13.5061 31.0269 13.511C31.0387 13.5159 31.0514 13.5185 31.0642 13.5185H31.9021C31.9281 13.5185 31.9529 13.5082 31.9713 13.4898C31.9896 13.4715 31.9999 13.4466 31.9999 13.4207V12.5832C31.9999 12.5572 31.9896 12.5324 31.9713 12.514C31.9529 12.4957 31.9281 12.4854 31.9021 12.4854V12.4854Z" fill="#E6E6E6"/>
<path d="M12.6444 24.8337H12.6211L12.641 24.8311L12.6444 24.8337Z" fill="#2F2E41"/>
<path d="M10.6408 9.22008C12.0604 9.22008 13.2113 8.06923 13.2113 6.64959C13.2113 5.22995 12.0604 4.0791 10.6408 4.0791C9.22116 4.0791 8.07031 5.22995 8.07031 6.64959C8.07031 8.06923 9.22116 9.22008 10.6408 9.22008Z" fill="#FFB6B6"/>
<path d="M12.8908 4.76471C12.8908 4.76471 13.5631 3.47946 12.084 3.36262C12.084 3.36262 10.8231 2.21879 9.53781 3.15351C9.53781 3.15351 8.83676 3.15351 8.45341 3.94682C8.45341 3.94682 7.90204 3.73771 7.78087 4.29735C7.78087 4.29735 7.37742 5.46575 7.78087 6.51732C8.18433 7.56888 8.31834 7.68572 8.31834 7.68572C8.31834 7.68572 7.65538 5.48106 9.26907 5.36422C10.8828 5.24737 12.6885 4.23893 12.823 5.52417C12.9575 6.80941 13.1599 7.12609 13.1599 7.12609C13.1599 7.12609 14.4372 5.29049 12.8908 4.76471Z" fill="#2F2E41"/>
<path d="M17.2904 12.9844L17.2821 13.0281L17.1892 13.5187L16.547 16.9123L16.509 17.1121L16.4292 17.5346L16.3201 18.111L16.0782 19.3883L16.009 19.7544L15.983 19.8917L15.974 19.9398L15.9021 20.3187L15.8803 20.4331L15.705 21.7322L15.5518 22.8643L16.0643 23.3767L15.7588 23.6822L15.5582 24.8309L15.5586 24.8335H7.37443C7.04335 24.619 6.71703 24.3979 6.39548 24.1702L6.46282 23.666C6.46282 23.666 6.69458 22.7657 6.59713 22.6581C6.50007 22.5505 6.28712 22.3583 6.28712 22.3583L6.55537 21.7322L6.59262 21.6453L6.53017 20.3499L6.52866 20.3187L6.50797 19.8917L6.50534 19.8367L6.5012 19.7544L6.42181 18.111L6.42031 18.0839L6.39623 17.5857L6.37365 17.1121L6.36387 16.9123L6.26718 14.9134L6.20172 13.5559L6.14453 12.3742L6.37441 12.2963L8.83309 11.4607L9.85155 10.1367L11.9712 10.1525L13.0089 10.1604L14.7403 11.7662L15.1342 11.9543L15.1372 11.9558L15.4198 12.0909L16.1361 12.4329L16.8935 12.7948L17.2821 12.9803L17.2904 12.9844Z" fill="#CACACA"/>
<path d="M10.1249 20.9765C9.9696 21.0366 9.80297 21.062 9.63676 21.0508C9.47056 21.0396 9.30883 20.9922 9.16297 20.9117C9.0171 20.8312 8.89066 20.7198 8.79253 20.5852C8.6944 20.4506 8.62699 20.2961 8.59503 20.1326L4.58594 19.5638L5.97961 17.9873L9.57304 18.7691C9.85125 18.7336 10.1328 18.8014 10.3644 18.9597C10.5959 19.1179 10.7614 19.3556 10.8294 19.6277C10.8975 19.8997 10.8633 20.1873 10.7335 20.4359C10.6036 20.6845 10.3871 20.8769 10.1249 20.9765V20.9765Z" fill="#FFB6B6"/>
<path d="M8.3369 18.1105C8.26264 18.0163 8.15751 17.9514 8.04006 17.9273L6.39517 17.5853L6.22624 17.5503C6.12807 17.5298 6.03533 17.4888 5.95409 17.43C5.87285 17.3712 5.80495 17.2959 5.75482 17.209C5.70282 17.1179 5.67137 17.0164 5.66264 16.9118C5.6548 16.8167 5.66619 16.721 5.69613 16.6304L6.26612 14.9129L6.63596 13.7985C6.68078 13.6641 6.70723 13.5242 6.71459 13.3828C6.7352 12.9912 6.61405 12.6053 6.37335 12.2958C6.16173 12.0238 5.86822 11.827 5.53617 11.7346C5.20413 11.6422 4.85117 11.659 4.52943 11.7826C4.52003 11.786 4.51024 11.7898 4.50084 11.7935C4.2701 11.8857 4.06396 12.0302 3.89869 12.2157C3.73343 12.4012 3.61357 12.6226 3.54859 12.8624L3.14678 14.3241L2.31794 17.3373C2.23497 17.6392 2.2182 17.9555 2.2688 18.2645C2.31939 18.5735 2.43615 18.8679 2.61107 19.1275C2.786 19.3872 3.01496 19.606 3.28229 19.769C3.54963 19.932 3.84902 20.0353 4.15997 20.0718L6.52911 20.3494L7.62545 20.4781C7.75222 20.4934 7.88008 20.4603 7.98355 20.3855C8.08703 20.3106 8.15852 20.1996 8.18378 20.0744C8.18555 20.0676 8.18693 20.0607 8.18792 20.0537L8.21425 19.8912L8.43736 18.5225L8.43961 18.5085C8.45124 18.4387 8.44811 18.3672 8.43042 18.2986C8.41273 18.2301 8.38087 18.166 8.3369 18.1105Z" fill="#CACACA"/>
<path d="M12.679 21.0204C12.8412 21.0581 13.0098 21.0597 13.1727 21.0252C13.3357 20.9907 13.4891 20.9209 13.6222 20.8206C13.7552 20.7204 13.8647 20.5922 13.9429 20.4451C14.021 20.298 14.066 20.1356 14.0746 19.9692L17.9634 18.8408L16.3613 17.4766L12.9141 18.7573C12.6336 18.7614 12.3644 18.8682 12.1575 19.0575C11.9506 19.2468 11.8203 19.5055 11.7913 19.7844C11.7623 20.0634 11.8367 20.3433 12.0003 20.5711C12.1639 20.7989 12.4054 20.9588 12.679 21.0204V21.0204Z" fill="#FFB6B6"/>
<path d="M19.8935 16.3167L18.044 12.06C17.8927 11.7106 17.6225 11.426 17.2813 11.2568C17.1759 11.2049 17.0651 11.1645 16.951 11.1364C16.9333 11.1319 16.9157 11.1277 16.898 11.1243C16.656 11.0715 16.405 11.0762 16.1651 11.1379C15.9458 11.1942 15.7408 11.2961 15.5636 11.437C15.3864 11.5779 15.2408 11.7545 15.1365 11.9554C15.1353 11.9571 15.1343 11.9589 15.1334 11.9607C15.0169 12.1862 14.9549 12.436 14.9524 12.6899C14.95 12.9438 15.0073 13.1946 15.1195 13.4224L15.1425 13.4683L16.4495 16.0932C16.4941 16.183 16.5193 16.2812 16.5233 16.3814C16.5273 16.4815 16.5101 16.5814 16.4728 16.6744C16.4355 16.7675 16.3789 16.8516 16.3068 16.9212C16.2347 16.9909 16.1487 17.0445 16.0545 17.0786L15.9627 17.1117L14.3117 17.708C14.1879 17.7522 14.086 17.8428 14.0275 17.9606C13.9691 18.0784 13.9586 18.2143 13.9983 18.3397L14.0025 18.3529L14.4653 19.8337C14.4675 19.8405 14.4698 19.8473 14.4724 19.8541C14.4765 19.8668 14.4815 19.8793 14.4874 19.8913C14.5366 20.0016 14.6236 20.0907 14.7326 20.1427C14.8416 20.1946 14.9656 20.2059 15.0823 20.1746L15.9732 19.9395L16.1549 19.8913L18.4556 19.2837C18.7583 19.2037 19.0402 19.0592 19.2819 18.8602C19.5236 18.6611 19.7194 18.4122 19.8559 18.1304C19.9925 17.8487 20.0666 17.5407 20.0731 17.2277C20.0795 16.9146 20.0183 16.6039 19.8935 16.3167L19.8935 16.3167Z" fill="#CACACA"/>
<path d="M1.68945 19.8916C2.22259 20.5419 2.79757 21.1567 3.41072 21.7321H20.4153C20.5791 21.7324 20.7362 21.7976 20.852 21.9135C20.9678 22.0294 21.0329 22.1865 21.0331 22.3503L21.0575 26.6593C22.1036 26.1787 23.0833 25.565 23.9722 24.8334C24.219 24.6306 24.4582 24.4191 24.6897 24.1987C24.8413 24.055 24.9893 23.9078 25.1336 23.757C26.2158 22.6296 27.0921 21.3214 27.7229 19.8916H1.68945Z" fill="#3F3D56"/>
<path d="M25.134 23.7568C24.9899 23.9077 24.8419 24.0549 24.69 24.1985H21.0703V23.7568H25.134Z" fill="white"/>
<path d="M17.2554 9.62961C17.2375 9.59661 17.211 9.56905 17.1788 9.54984C17.1465 9.53064 17.1097 9.5205 17.0721 9.52051H4.73773C4.68243 9.52065 4.62944 9.54271 4.59037 9.58185C4.5513 9.62099 4.52934 9.67401 4.5293 9.72931V17.1118H17.2809V9.72931C17.2811 9.69443 17.2723 9.66009 17.2554 9.62961V9.62961Z" fill="#3F3D56"/>
<path d="M4.51953 16.9121V17.8231C4.51953 17.8609 4.52697 17.8983 4.54142 17.9332C4.55587 17.9681 4.57706 17.9998 4.60376 18.0265C4.63047 18.0532 4.66217 18.0744 4.69706 18.0888C4.73195 18.1033 4.76935 18.1107 4.80712 18.1107H9.51366V19.9086H9.45114C9.44623 19.9086 9.44137 19.9096 9.43684 19.9114C9.43231 19.9133 9.42819 19.9161 9.42472 19.9195C9.42125 19.923 9.4185 19.9271 9.41662 19.9316C9.41474 19.9362 9.41378 19.941 9.41378 19.9459V20.071C9.41378 20.0759 9.41474 20.0808 9.41662 20.0853C9.4185 20.0898 9.42125 20.0939 9.42472 20.0974C9.42819 20.1009 9.43231 20.1036 9.43684 20.1055C9.44137 20.1074 9.44623 20.1084 9.45114 20.1084H12.3729C12.3778 20.1084 12.3827 20.1074 12.3872 20.1055C12.3917 20.1036 12.3958 20.1009 12.3993 20.0974C12.4028 20.0939 12.4055 20.0898 12.4074 20.0853C12.4093 20.0808 12.4103 20.0759 12.4103 20.071V19.9459C12.4103 19.941 12.4093 19.9362 12.4074 19.9316C12.4055 19.9271 12.4028 19.923 12.3993 19.9195C12.3958 19.9161 12.3917 19.9133 12.3872 19.9114C12.3827 19.9096 12.3778 19.9086 12.3729 19.9086H12.3104V18.1107H17.0169C17.0547 18.1107 17.0921 18.1033 17.127 18.0888C17.1619 18.0744 17.1936 18.0532 17.2203 18.0265C17.247 17.9998 17.2682 17.9681 17.2826 17.9332C17.2971 17.8983 17.3045 17.8609 17.3045 17.8231V16.9121H4.51953Z" fill="#3F3D56"/>
<path d="M10.756 14.2971C11.4065 14.2971 11.9338 13.7698 11.9338 13.1193C11.9338 12.4687 11.4065 11.9414 10.756 11.9414C10.1055 11.9414 9.57812 12.4687 9.57812 13.1193C9.57812 13.7698 10.1055 14.2971 10.756 14.2971Z" fill="#6C63FF"/>
<path d="M13.7577 6.50847H13.5696C13.5696 5.08631 12.1621 4.15438 10.7422 4.15363C10.5357 4.15303 10.3296 4.17307 10.127 4.21345C9.89905 4.25898 9.6624 4.31353 9.42989 4.38464C8.51301 4.66568 7.66273 5.20896 7.66273 6.50847C7.66253 6.76084 7.69465 7.0122 7.75829 7.25642L7.57619 7.30383C7.50865 7.04411 7.47451 6.77683 7.47461 6.50847C7.47461 5.373 7.94076 4.59307 8.7459 4.12805C9.16916 3.8835 9.68573 3.72585 10.2775 3.6491C10.5238 3.61634 10.7728 3.60878 11.0206 3.62653C12.6534 3.74391 13.7577 4.99601 13.7577 6.50847Z" fill="#6C63FF"/>
<path d="M14.0715 6.61339L13.9974 6.06559C13.9791 5.92725 13.9124 5.79984 13.8093 5.70592C13.743 5.64468 13.6637 5.59932 13.5773 5.57324C13.491 5.54717 13.3998 5.54108 13.3107 5.55542L13.193 5.5716C13.1608 5.57584 13.1297 5.58644 13.1016 5.60278C13.0735 5.61912 13.0489 5.64088 13.0293 5.66679C13.0095 5.69261 12.9951 5.7221 12.9867 5.75355C12.9784 5.78499 12.9764 5.81778 12.9808 5.85001L13.152 7.1119C13.159 7.16333 13.1821 7.21124 13.2179 7.24885C13.2537 7.28646 13.3004 7.31186 13.3514 7.32146C13.3665 7.32449 13.3819 7.326 13.3973 7.32597C13.4084 7.32597 13.4194 7.32522 13.4304 7.32372L13.5621 7.30603C13.6424 7.29538 13.7196 7.26842 13.7891 7.22682C13.8586 7.18522 13.9188 7.12985 13.9661 7.06412C13.9763 7.04982 13.9861 7.03515 13.9951 7.02009C14.0656 6.89699 14.0925 6.75369 14.0715 6.61339Z" fill="#6C63FF"/>
<path d="M13.117 5.59375C13.0824 5.61053 13.0524 5.63529 13.0293 5.66599C13.0095 5.69181 12.9951 5.7213 12.9867 5.75274C12.9784 5.78419 12.9764 5.81698 12.9808 5.84921L13.152 7.11109C13.159 7.16253 13.1821 7.21044 13.2179 7.24805C13.2537 7.28566 13.3004 7.31106 13.3514 7.32066L13.117 5.59375Z" fill="white"/>
<path d="M14.0708 6.61255L13.9967 6.06476C13.9784 5.92642 13.9118 5.79901 13.8086 5.70508L13.979 6.96057C13.9816 6.98072 13.9868 7.00045 13.9945 7.01926C14.065 6.89615 14.0919 6.75285 14.0708 6.61255V6.61255Z" fill="#3F3D56"/>
<path d="M13.4843 7.00735C13.5358 7.00036 13.5617 6.87786 13.5421 6.73373C13.5226 6.5896 13.465 6.47842 13.4135 6.4854C13.362 6.49239 13.3362 6.61489 13.3557 6.75902C13.3753 6.90315 13.4328 7.01433 13.4843 7.00735Z" fill="#3F3D56"/>
<path d="M13.373 6.33059C13.4245 6.32361 13.4503 6.2011 13.4308 6.05697C13.4112 5.91284 13.3537 5.80166 13.3022 5.80865C13.2507 5.81563 13.2248 5.93813 13.2444 6.08226C13.2639 6.22639 13.3215 6.33757 13.373 6.33059Z" fill="#3F3D56"/>
<path d="M14.0878 6.59426C14.1393 6.58728 14.1652 6.46478 14.1456 6.32065C14.1261 6.17651 14.0685 6.06533 14.017 6.07232C13.9656 6.0793 13.9397 6.2018 13.9592 6.34593C13.9788 6.49006 14.0364 6.60124 14.0878 6.59426Z" fill="#3F3D56"/>
<path d="M10.7424 4.15363C10.5359 4.15303 10.3298 4.17307 10.1272 4.21345C9.89925 4.25898 9.6626 4.31353 9.43008 4.38464C9.06702 4.36696 8.79989 4.2729 8.74609 4.12805C9.16936 3.8835 9.68592 3.72585 10.2777 3.6491C10.524 3.61634 10.773 3.60878 11.0208 3.62653C11.047 3.64191 11.0697 3.66266 11.0873 3.68744C11.105 3.71221 11.1172 3.74043 11.1231 3.77025C11.1408 3.90118 10.9914 4.04038 10.7424 4.15363Z" fill="#3F3D56"/>
<path d="M8.34096 7.81406L8.05127 6.60974C8.04094 6.56629 8.018 6.52686 7.98533 6.49641C7.95267 6.46595 7.91173 6.44583 7.86767 6.43856C7.85522 6.43662 7.84264 6.43561 7.83004 6.43555C7.81229 6.43561 7.79461 6.43776 7.77737 6.44194L7.66525 6.46903C7.5209 6.50394 7.39629 6.5947 7.31877 6.72138C7.24125 6.84806 7.21716 7.00032 7.25177 7.14474L7.38157 7.68501C7.41121 7.81221 7.48179 7.92615 7.58248 8.00933C7.5988 8.0225 7.61588 8.03469 7.63365 8.04582C7.69671 8.08535 7.76706 8.11184 7.84053 8.12373C7.914 8.13562 7.98911 8.13267 8.06142 8.11505L8.17317 8.08796C8.20271 8.08107 8.23051 8.06813 8.25481 8.04996C8.29094 8.02362 8.31843 7.98712 8.33377 7.94512C8.34911 7.90311 8.35161 7.85749 8.34096 7.81406Z" fill="#6C63FF"/>
<path d="M7.73226 7.59069C7.78277 7.57853 7.79612 7.45404 7.76209 7.31263C7.72806 7.17121 7.65953 7.06643 7.60903 7.07858C7.55852 7.09073 7.54517 7.21522 7.5792 7.35664C7.61323 7.49805 7.68175 7.60284 7.73226 7.59069Z" fill="#3F3D56"/>
<path d="M7.35726 7.70299C7.40777 7.69084 7.42112 7.56635 7.38709 7.42493C7.35306 7.28352 7.28453 7.17873 7.23403 7.19088C7.18352 7.20304 7.17017 7.32753 7.2042 7.46894C7.23823 7.61036 7.30675 7.71514 7.35726 7.70299Z" fill="#3F3D56"/>
<path d="M8.35787 7.80935L8.06817 6.60503C8.05688 6.55802 8.03198 6.51538 7.99657 6.48245C7.96117 6.44953 7.91685 6.42778 7.86914 6.41992L8.26456 8.06481C8.30361 8.03621 8.33332 7.99668 8.34992 7.95122C8.36653 7.90575 8.36929 7.85638 8.35787 7.80935V7.80935Z" fill="white"/>
<path d="M7.31559 6.90663C7.30759 6.87314 7.29259 6.84172 7.27157 6.81445C7.23084 6.91992 7.22336 7.03532 7.25012 7.14516L7.37992 7.68543C7.40956 7.81262 7.48014 7.92657 7.58083 8.00975L7.31559 6.90663Z" fill="#3F3D56"/>
</g>
<defs>
<clipPath id="clip0_816_25">
<rect width="32" height="27.8724" fill="white"/>
</clipPath>
</defs>
</svg>
