<svg width="48" height="70" viewBox="0 0 48 70" fill="none" xmlns="http://www.w3.org/2000/svg">
<path d="M0 36V34H48V36H0Z" fill="#312E81"/>
<path d="M0 66V64H48V66H0Z" fill="#312E81"/>
<path d="M0 6V4H48V6H0Z" fill="#312E81"/>
<path d="M24 30C26.7614 30 29 32.2386 29 35C29 37.7614 26.7614 40 24 40C21.2386 40 19 37.7614 19 35C19 32.2386 21.2386 30 24 30Z" fill="#312E81"/>
<path d="M24 60C26.7614 60 29 62.2386 29 65C29 67.7614 26.7614 70 24 70C21.2386 70 19 67.7614 19 65C19 62.2386 21.2386 60 24 60Z" fill="#312E81"/>
<path d="M24 0C26.7614 0 29 2.23858 29 5C29 7.76142 26.7614 10 24 10C21.2386 10 19 7.76142 19 5C19 2.23858 21.2386 0 24 0Z" fill="#312E81"/>
</svg>
